<svg width="696" height="190" viewBox="0 0 696 190" fill="none" xmlns="http://www.w3.org/2000/svg">
<g filter="url(#filter0_d_267_18)">
<rect x="22.5" y="111.5" width="619" height="69" fill="#B6FFB6" stroke="black"/>
<rect x="620.5" y="106.5" width="40" height="79" fill="#B6FFB6" stroke="black"/>
<rect x="0.5" y="106.5" width="40" height="79" fill="#B6FFB6" stroke="black"/>
</g>
<path d="M49.0909 17.9091H73.3636L99 80.4545H100.091L125.727 17.9091H150V111H130.909V50.4091H130.136L106.045 110.545H93.0455L68.9545 50.1818H68.1818V111H49.0909V17.9091ZM194.421 111H173.33L205.467 17.9091H230.83L262.921 111H241.83L218.512 39.1818H217.785L194.421 111ZM193.103 74.4091H242.921V89.7727H193.103V74.4091ZM286.286 111V17.9091H323.013C330.043 17.9091 336.043 19.1667 341.013 21.6818C346.013 24.1667 349.816 27.697 352.422 32.2727C355.059 36.8182 356.377 42.1667 356.377 48.3182C356.377 54.5 355.043 59.8182 352.377 64.2727C349.71 68.697 345.847 72.0909 340.786 74.4545C335.756 76.8182 329.665 78 322.513 78H297.922V62.1818H319.331C323.089 62.1818 326.21 61.6667 328.695 60.6364C331.18 59.6061 333.028 58.0606 334.24 56C335.483 53.9394 336.104 51.3788 336.104 48.3182C336.104 45.2273 335.483 42.6212 334.24 40.5C333.028 38.3788 331.165 36.7727 328.65 35.6818C326.165 34.5606 323.028 34 319.24 34H305.968V111H286.286ZM336.559 68.6364L359.695 111H337.968L315.331 68.6364H336.559ZM402.128 17.9091V111H382.446V17.9091H402.128ZM516.026 64.4545C516.026 74.6061 514.102 83.2424 510.254 90.3636C506.435 97.4848 501.223 102.924 494.617 106.682C488.042 110.409 480.648 112.273 472.435 112.273C464.163 112.273 456.738 110.394 450.163 106.636C443.587 102.879 438.39 97.4394 434.572 90.3182C430.754 83.197 428.845 74.5758 428.845 64.4545C428.845 54.303 430.754 45.6667 434.572 38.5455C438.39 31.4242 443.587 26 450.163 22.2727C456.738 18.5151 464.163 16.6364 472.435 16.6364C480.648 16.6364 488.042 18.5151 494.617 22.2727C501.223 26 506.435 31.4242 510.254 38.5455C514.102 45.6667 516.026 54.303 516.026 64.4545ZM496.072 64.4545C496.072 57.8788 495.087 52.3333 493.117 47.8182C491.178 43.303 488.435 39.8788 484.89 37.5455C481.345 35.2121 477.193 34.0455 472.435 34.0455C467.678 34.0455 463.526 35.2121 459.981 37.5455C456.435 39.8788 453.678 43.303 451.708 47.8182C449.769 52.3333 448.799 57.8788 448.799 64.4545C448.799 71.0303 449.769 76.5758 451.708 81.0909C453.678 85.6061 456.435 89.0303 459.981 91.3636C463.526 93.697 467.678 94.8636 472.435 94.8636C477.193 94.8636 481.345 93.697 484.89 91.3636C488.435 89.0303 491.178 85.6061 493.117 81.0909C495.087 76.5758 496.072 71.0303 496.072 64.4545ZM553.72 100.182C550.72 100.182 548.145 99.1212 545.993 97C543.872 94.8788 542.811 92.303 542.811 89.2727C542.811 86.303 543.872 83.7576 545.993 81.6364C548.145 79.5152 550.72 78.4545 553.72 78.4545C556.63 78.4545 559.175 79.5152 561.357 81.6364C563.539 83.7576 564.63 86.303 564.63 89.2727C564.63 91.2727 564.114 93.1061 563.084 94.7727C562.084 96.4091 560.766 97.7273 559.13 98.7273C557.493 99.697 555.69 100.182 553.72 100.182ZM553.72 54.5C550.72 54.5 548.145 53.4394 545.993 51.3182C543.872 49.197 542.811 46.6212 542.811 43.5909C542.811 40.6212 543.872 38.0909 545.993 36C548.145 33.8788 550.72 32.8182 553.72 32.8182C556.63 32.8182 559.175 33.8788 561.357 36C563.539 38.0909 564.63 40.6212 564.63 43.5909C564.63 45.6212 564.114 47.4697 563.084 49.1364C562.084 50.7727 560.766 52.0758 559.13 53.0455C557.493 54.0152 555.69 54.5 553.72 54.5ZM593.051 111V17.9091H629.778C636.839 17.9091 642.854 19.2576 647.824 21.9545C652.793 24.6212 656.581 28.3333 659.187 33.0909C661.824 37.8182 663.142 43.2727 663.142 49.4545C663.142 55.6364 661.809 61.0909 659.142 65.8182C656.475 70.5455 652.612 74.2273 647.551 76.8636C642.521 79.5 636.43 80.8182 629.278 80.8182H605.869V65.0455H626.096C629.884 65.0455 633.005 64.3939 635.46 63.0909C637.945 61.7576 639.793 59.9242 641.005 57.5909C642.248 55.2273 642.869 52.5151 642.869 49.4545C642.869 46.3636 642.248 43.6667 641.005 41.3636C639.793 39.0303 637.945 37.2273 635.46 35.9545C632.975 34.6515 629.824 34 626.005 34H612.733V111H593.051Z" fill="black"/>
<path d="M86.3672 142H83.9414V131.652L82.4062 137.148H80.5312L79.0195 131.652V142H76.5938V126.707H79.4766L81.4688 133.621L83.4609 126.707H86.3672V142ZM89.6953 131.078H92.1211V137.828C92.1211 138.672 92.2812 139.258 92.6016 139.586C92.9219 139.914 93.3867 140.078 93.9961 140.078C94.8867 140.078 95.6172 139.715 96.1875 138.988C96.7578 138.262 97.043 137.258 97.043 135.977V131.078H99.4688V142H97.043V139.27C96.8008 140.207 96.3516 140.941 95.6953 141.473C95.0391 142.004 94.2305 142.27 93.2695 142.27C92.1523 142.27 91.2773 141.906 90.6445 141.18C90.0117 140.445 89.6953 139.328 89.6953 137.828V131.078ZM111.41 142H104.074V139.82H106.465V128.898H104.074V126.707H108.891V139.82H111.41V142ZM126.363 138.52C126.238 139.668 125.785 140.582 125.004 141.262C124.23 141.934 123.262 142.27 122.098 142.27C121.457 142.27 120.871 142.164 120.34 141.953C119.809 141.742 119.355 141.449 118.98 141.074C118.605 140.699 118.312 140.25 118.102 139.727C117.898 139.195 117.797 138.617 117.797 137.992V133.27H115.324V131.078H117.797V126.707H120.223V131.078H124.805V133.27H120.223V137.992C120.223 138.695 120.395 139.219 120.738 139.562C121.082 139.906 121.535 140.078 122.098 140.078C122.785 140.078 123.297 139.879 123.633 139.48C123.969 139.082 124.168 138.602 124.23 138.039L126.363 138.52ZM135.363 129.66H132.41V126.707H135.363V129.66ZM137.59 142H130.254V139.82H132.668V133.27H130.254V131.078H135.094V139.82H137.59V142ZM163.723 142L162.621 138.355H157.559L156.48 142H153.938L158.707 126.707H161.496L166.266 142H163.723ZM158.203 136.211H161.977L160.102 129.906L158.203 136.211ZM178.078 141.883C178.078 142.633 177.949 143.301 177.691 143.887C177.434 144.473 177.07 144.969 176.602 145.375C176.141 145.781 175.594 146.09 174.961 146.301C174.336 146.52 173.637 146.629 172.863 146.629C170.965 146.629 169.344 146.055 168 144.906L169.148 143.031C170.266 143.992 171.504 144.473 172.863 144.473C173.699 144.473 174.371 144.266 174.879 143.852C175.395 143.445 175.652 142.805 175.652 141.93V140.758C175.152 141.188 174.672 141.508 174.211 141.719C173.75 141.922 173.215 142.023 172.605 142.023C171.902 142.023 171.25 141.875 170.648 141.578C170.047 141.281 169.527 140.879 169.09 140.371C168.66 139.855 168.32 139.258 168.07 138.578C167.828 137.898 167.707 137.176 167.707 136.41C167.707 135.645 167.828 134.922 168.07 134.242C168.32 133.555 168.66 132.961 169.09 132.461C169.527 131.953 170.047 131.555 170.648 131.266C171.25 130.969 171.902 130.82 172.605 130.82C173.215 130.82 173.758 130.926 174.234 131.137C174.711 131.34 175.184 131.648 175.652 132.062V131.078H178.078V141.883ZM175.652 133.984C175.363 133.664 174.988 133.422 174.527 133.258C174.074 133.086 173.633 133 173.203 133C172.289 133 171.547 133.32 170.977 133.961C170.414 134.602 170.133 135.418 170.133 136.41C170.133 136.902 170.207 137.359 170.355 137.781C170.512 138.195 170.723 138.555 170.988 138.859C171.262 139.164 171.586 139.406 171.961 139.586C172.344 139.758 172.758 139.844 173.203 139.844C173.633 139.844 174.074 139.758 174.527 139.586C174.988 139.406 175.363 139.156 175.652 138.836V133.984ZM183.059 137.465C183.176 138.215 183.531 138.84 184.125 139.34C184.727 139.832 185.531 140.078 186.539 140.078C187.328 140.078 188.012 139.957 188.59 139.715C189.176 139.465 189.68 139.137 190.102 138.73L191.344 140.441C190.641 141.145 189.895 141.625 189.105 141.883C188.324 142.141 187.469 142.27 186.539 142.27C185.695 142.27 184.91 142.129 184.184 141.848C183.457 141.566 182.828 141.176 182.297 140.676C181.766 140.168 181.348 139.566 181.043 138.871C180.746 138.176 180.598 137.402 180.598 136.551C180.598 135.723 180.734 134.961 181.008 134.266C181.289 133.562 181.68 132.957 182.18 132.449C182.688 131.934 183.293 131.535 183.996 131.254C184.699 130.965 185.477 130.82 186.328 130.82C187.211 130.82 188.012 130.973 188.73 131.277C189.449 131.574 190.062 132.008 190.57 132.578C191.086 133.148 191.488 133.848 191.777 134.676C192.066 135.496 192.211 136.426 192.211 137.465H183.059ZM189.469 135.332C189.344 134.629 188.98 134.066 188.379 133.645C187.777 133.215 187.094 133 186.328 133C185.562 133 184.875 133.215 184.266 133.645C183.656 134.066 183.289 134.629 183.164 135.332H189.469ZM204.281 142H201.855V135.262C201.855 134.41 201.695 133.82 201.375 133.492C201.055 133.164 200.59 133 199.98 133C199.082 133 198.348 133.363 197.777 134.09C197.215 134.816 196.934 135.82 196.934 137.102V142H194.508V131.078H196.934V133.82C197.176 132.875 197.625 132.141 198.281 131.617C198.938 131.086 199.746 130.82 200.707 130.82C201.824 130.82 202.699 131.184 203.332 131.91C203.965 132.637 204.281 133.754 204.281 135.262V142ZM218.074 138.52C217.949 139.668 217.496 140.582 216.715 141.262C215.941 141.934 214.973 142.27 213.809 142.27C213.168 142.27 212.582 142.164 212.051 141.953C211.52 141.742 211.066 141.449 210.691 141.074C210.316 140.699 210.023 140.25 209.812 139.727C209.609 139.195 209.508 138.617 209.508 137.992V133.27H207.035V131.078H209.508V126.707H211.934V131.078H216.516V133.27H211.934V137.992C211.934 138.695 212.105 139.219 212.449 139.562C212.793 139.906 213.246 140.078 213.809 140.078C214.496 140.078 215.008 139.879 215.344 139.48C215.68 139.082 215.879 138.602 215.941 138.039L218.074 138.52ZM244.371 142H241.301L237.34 135.812H236.238V142H233.812V126.707H238.852C240.531 126.707 241.836 127.094 242.766 127.867C243.695 128.633 244.16 129.77 244.16 131.277C244.16 131.949 244.055 132.543 243.844 133.059C243.641 133.566 243.348 134.004 242.965 134.371C242.59 134.738 242.148 135.031 241.641 135.25C241.141 135.461 240.598 135.605 240.012 135.684L244.371 142ZM241.734 131.242C241.734 130.461 241.477 129.875 240.961 129.484C240.453 129.094 239.75 128.898 238.852 128.898H236.238V133.621H238.852C239.75 133.621 240.453 133.426 240.961 133.035C241.477 132.645 241.734 132.047 241.734 131.242ZM248.566 137.465C248.684 138.215 249.039 138.84 249.633 139.34C250.234 139.832 251.039 140.078 252.047 140.078C252.836 140.078 253.52 139.957 254.098 139.715C254.684 139.465 255.188 139.137 255.609 138.73L256.852 140.441C256.148 141.145 255.402 141.625 254.613 141.883C253.832 142.141 252.977 142.27 252.047 142.27C251.203 142.27 250.418 142.129 249.691 141.848C248.965 141.566 248.336 141.176 247.805 140.676C247.273 140.168 246.855 139.566 246.551 138.871C246.254 138.176 246.105 137.402 246.105 136.551C246.105 135.723 246.242 134.961 246.516 134.266C246.797 133.562 247.188 132.957 247.688 132.449C248.195 131.934 248.801 131.535 249.504 131.254C250.207 130.965 250.984 130.82 251.836 130.82C252.719 130.82 253.52 130.973 254.238 131.277C254.957 131.574 255.57 132.008 256.078 132.578C256.594 133.148 256.996 133.848 257.285 134.676C257.574 135.496 257.719 136.426 257.719 137.465H248.566ZM254.977 135.332C254.852 134.629 254.488 134.066 253.887 133.645C253.285 133.215 252.602 133 251.836 133C251.07 133 250.383 133.215 249.773 133.645C249.164 134.066 248.797 134.629 248.672 135.332H254.977ZM270.07 138.73C270.07 139.441 269.91 140.02 269.59 140.465C269.27 140.91 268.855 141.27 268.348 141.543C267.848 141.816 267.285 142.004 266.66 142.105C266.043 142.215 265.438 142.27 264.844 142.27C263.852 142.27 262.863 142.125 261.879 141.836C260.895 141.547 260.043 141.168 259.324 140.699L260.332 138.707C261.191 139.207 261.977 139.562 262.688 139.773C263.406 139.977 264.125 140.078 264.844 140.078C265.82 140.078 266.531 139.977 266.977 139.773C267.422 139.562 267.645 139.273 267.645 138.906C267.645 138.727 267.582 138.578 267.457 138.461C267.332 138.344 267.125 138.238 266.836 138.145C266.547 138.043 266.164 137.945 265.688 137.852C265.219 137.75 264.633 137.645 263.93 137.535C263.367 137.441 262.832 137.328 262.324 137.195C261.824 137.055 261.383 136.859 261 136.609C260.617 136.359 260.309 136.043 260.074 135.66C259.848 135.277 259.734 134.797 259.734 134.219C259.734 133.633 259.883 133.125 260.18 132.695C260.484 132.258 260.879 131.898 261.363 131.617C261.855 131.336 262.406 131.133 263.016 131.008C263.625 130.883 264.234 130.82 264.844 130.82C265.703 130.82 266.535 130.934 267.34 131.16C268.152 131.379 268.863 131.695 269.473 132.109L268.512 133.984C267.902 133.602 267.309 133.344 266.73 133.211C266.16 133.07 265.531 133 264.844 133C264.555 133 264.254 133.016 263.941 133.047C263.629 133.078 263.34 133.141 263.074 133.234C262.809 133.32 262.586 133.441 262.406 133.598C262.234 133.746 262.148 133.93 262.148 134.148C262.148 134.438 262.402 134.676 262.91 134.863C263.426 135.043 264.301 135.223 265.535 135.402C266.207 135.496 266.82 135.617 267.375 135.766C267.93 135.906 268.406 136.102 268.805 136.352C269.203 136.594 269.512 136.91 269.73 137.301C269.957 137.684 270.07 138.16 270.07 138.73ZM274.77 137.465C274.887 138.215 275.242 138.84 275.836 139.34C276.438 139.832 277.242 140.078 278.25 140.078C279.039 140.078 279.723 139.957 280.301 139.715C280.887 139.465 281.391 139.137 281.812 138.73L283.055 140.441C282.352 141.145 281.605 141.625 280.816 141.883C280.035 142.141 279.18 142.27 278.25 142.27C277.406 142.27 276.621 142.129 275.895 141.848C275.168 141.566 274.539 141.176 274.008 140.676C273.477 140.168 273.059 139.566 272.754 138.871C272.457 138.176 272.309 137.402 272.309 136.551C272.309 135.723 272.445 134.961 272.719 134.266C273 133.562 273.391 132.957 273.891 132.449C274.398 131.934 275.004 131.535 275.707 131.254C276.41 130.965 277.188 130.82 278.039 130.82C278.922 130.82 279.723 130.973 280.441 131.277C281.16 131.574 281.773 132.008 282.281 132.578C282.797 133.148 283.199 133.848 283.488 134.676C283.777 135.496 283.922 136.426 283.922 137.465H274.77ZM281.18 135.332C281.055 134.629 280.691 134.066 280.09 133.645C279.488 133.215 278.805 133 278.039 133C277.273 133 276.586 133.215 275.977 133.645C275.367 134.066 275 134.629 274.875 135.332H281.18ZM285.598 138.859C285.598 138.219 285.77 137.66 286.113 137.184C286.457 136.699 286.906 136.297 287.461 135.977C288.023 135.656 288.664 135.418 289.383 135.262C290.109 135.098 290.848 135.016 291.598 135.016C292.012 135.016 292.367 135.023 292.664 135.039C292.961 135.055 293.262 135.078 293.566 135.109V134.676C293.566 134.105 293.344 133.68 292.898 133.398C292.461 133.117 291.883 132.977 291.164 132.977C290.508 132.977 289.84 133.07 289.16 133.258C288.48 133.438 287.836 133.703 287.227 134.055L286.242 132.156C286.961 131.742 287.73 131.418 288.551 131.184C289.379 130.941 290.25 130.82 291.164 130.82C291.758 130.82 292.34 130.887 292.91 131.02C293.488 131.152 294.004 131.371 294.457 131.676C294.918 131.98 295.285 132.379 295.559 132.871C295.832 133.355 295.969 133.957 295.969 134.676V142H293.566V140.395C293.184 140.988 292.617 141.449 291.867 141.777C291.125 142.105 290.324 142.27 289.465 142.27C288.934 142.27 288.43 142.195 287.953 142.047C287.484 141.906 287.078 141.691 286.734 141.402C286.391 141.113 286.113 140.758 285.902 140.336C285.699 139.906 285.598 139.414 285.598 138.859ZM290.086 140.102C290.562 140.102 291.008 140.043 291.422 139.926C291.844 139.801 292.215 139.633 292.535 139.422C292.855 139.203 293.105 138.941 293.285 138.637C293.473 138.332 293.566 137.996 293.566 137.629V137.219C293.184 137.156 292.824 137.121 292.488 137.113C292.152 137.105 291.855 137.102 291.598 137.102C290.41 137.102 289.512 137.258 288.902 137.57C288.301 137.883 288 138.27 288 138.73C288 139.645 288.695 140.102 290.086 140.102ZM309.398 133.668C309.109 133.527 308.812 133.422 308.508 133.352C308.211 133.273 307.867 133.234 307.477 133.234C306.938 133.234 306.43 133.316 305.953 133.48C305.484 133.637 305.078 133.875 304.734 134.195C304.391 134.516 304.121 134.918 303.926 135.402C303.738 135.879 303.645 136.445 303.645 137.102V139.82H306.094V142H298.746V139.82H301.219V133.27H298.746V131.078H303.645V133.82C304.043 132.727 304.629 131.953 305.402 131.5C306.184 131.047 307.109 130.82 308.18 130.82C308.516 130.82 308.867 130.855 309.234 130.926C309.602 130.996 309.961 131.121 310.312 131.301L309.398 133.668ZM322.359 140.441C321.656 141.145 320.914 141.625 320.133 141.883C319.359 142.141 318.52 142.27 317.613 142.27C316.699 142.27 315.867 142.133 315.117 141.859C314.375 141.586 313.742 141.203 313.219 140.711C312.703 140.211 312.305 139.609 312.023 138.906C311.75 138.203 311.613 137.418 311.613 136.551C311.613 135.723 311.75 134.957 312.023 134.254C312.305 133.543 312.68 132.938 313.148 132.438C313.625 131.93 314.184 131.535 314.824 131.254C315.465 130.965 316.145 130.82 316.863 130.82C317.613 130.82 318.266 130.977 318.82 131.289C319.375 131.602 319.777 132.059 320.027 132.66V131.078H322.195V136.164H320.027C320.027 135.203 319.762 134.438 319.23 133.867C318.707 133.289 318.023 133 317.18 133C316.844 133 316.488 133.07 316.113 133.211C315.746 133.344 315.406 133.555 315.094 133.844C314.789 134.133 314.535 134.5 314.332 134.945C314.129 135.391 314.027 135.926 314.027 136.551C314.027 137.16 314.125 137.688 314.32 138.133C314.516 138.57 314.77 138.934 315.082 139.223C315.402 139.504 315.777 139.719 316.207 139.867C316.645 140.008 317.094 140.078 317.555 140.078C318.344 140.078 319.027 139.957 319.605 139.715C320.191 139.465 320.695 139.137 321.117 138.73L322.359 140.441ZM335.297 142H332.871V135.262C332.871 134.41 332.711 133.82 332.391 133.492C332.07 133.164 331.605 133 330.996 133C330.098 133 329.363 133.363 328.793 134.09C328.23 134.816 327.949 135.82 327.949 137.102V142H325.523V126.707H327.949V133.82C328.191 132.875 328.641 132.141 329.297 131.617C329.953 131.086 330.762 130.82 331.723 130.82C332.84 130.82 333.715 131.184 334.348 131.91C334.98 132.637 335.297 133.754 335.297 135.262V142ZM340.277 137.465C340.395 138.215 340.75 138.84 341.344 139.34C341.945 139.832 342.75 140.078 343.758 140.078C344.547 140.078 345.23 139.957 345.809 139.715C346.395 139.465 346.898 139.137 347.32 138.73L348.562 140.441C347.859 141.145 347.113 141.625 346.324 141.883C345.543 142.141 344.688 142.27 343.758 142.27C342.914 142.27 342.129 142.129 341.402 141.848C340.676 141.566 340.047 141.176 339.516 140.676C338.984 140.168 338.566 139.566 338.262 138.871C337.965 138.176 337.816 137.402 337.816 136.551C337.816 135.723 337.953 134.961 338.227 134.266C338.508 133.562 338.898 132.957 339.398 132.449C339.906 131.934 340.512 131.535 341.215 131.254C341.918 130.965 342.695 130.82 343.547 130.82C344.43 130.82 345.23 130.973 345.949 131.277C346.668 131.574 347.281 132.008 347.789 132.578C348.305 133.148 348.707 133.848 348.996 134.676C349.285 135.496 349.43 136.426 349.43 137.465H340.277ZM346.688 135.332C346.562 134.629 346.199 134.066 345.598 133.645C344.996 133.215 344.312 133 343.547 133C342.781 133 342.094 133.215 341.484 133.645C340.875 134.066 340.508 134.629 340.383 135.332H346.688ZM361.805 133.668C361.516 133.527 361.219 133.422 360.914 133.352C360.617 133.273 360.273 133.234 359.883 133.234C359.344 133.234 358.836 133.316 358.359 133.48C357.891 133.637 357.484 133.875 357.141 134.195C356.797 134.516 356.527 134.918 356.332 135.402C356.145 135.879 356.051 136.445 356.051 137.102V139.82H358.5V142H351.152V139.82H353.625V133.27H351.152V131.078H356.051V133.82C356.449 132.727 357.035 131.953 357.809 131.5C358.59 131.047 359.516 130.82 360.586 130.82C360.922 130.82 361.273 130.855 361.641 130.926C362.008 130.996 362.367 131.121 362.719 131.301L361.805 133.668ZM388.617 131.078L386.977 142H383.977L382.828 135.426L381.656 142H378.656L377.016 131.078H379.395L380.355 138.379L381.527 131.078H384.094L385.277 138.379L386.238 131.078H388.617ZM397.395 129.66H394.441V126.707H397.395V129.66ZM399.621 142H392.285V139.82H394.699V133.27H392.285V131.078H397.125V139.82H399.621V142ZM414.598 138.52C414.473 139.668 414.02 140.582 413.238 141.262C412.465 141.934 411.496 142.27 410.332 142.27C409.691 142.27 409.105 142.164 408.574 141.953C408.043 141.742 407.59 141.449 407.215 141.074C406.84 140.699 406.547 140.25 406.336 139.727C406.133 139.195 406.031 138.617 406.031 137.992V133.27H403.559V131.078H406.031V126.707H408.457V131.078H413.039V133.27H408.457V137.992C408.457 138.695 408.629 139.219 408.973 139.562C409.316 139.906 409.77 140.078 410.332 140.078C411.02 140.078 411.531 139.879 411.867 139.48C412.203 139.082 412.402 138.602 412.465 138.039L414.598 138.52ZM427.008 142H424.582V135.262C424.582 134.41 424.422 133.82 424.102 133.492C423.781 133.164 423.316 133 422.707 133C421.809 133 421.074 133.363 420.504 134.09C419.941 134.816 419.66 135.82 419.66 137.102V142H417.234V126.707H419.66V133.82C419.902 132.875 420.352 132.141 421.008 131.617C421.664 131.086 422.473 130.82 423.434 130.82C424.551 130.82 425.426 131.184 426.059 131.91C426.691 132.637 427.008 133.754 427.008 135.262V142ZM453.492 138.73C453.492 139.441 453.332 140.02 453.012 140.465C452.691 140.91 452.277 141.27 451.77 141.543C451.27 141.816 450.707 142.004 450.082 142.105C449.465 142.215 448.859 142.27 448.266 142.27C447.273 142.27 446.285 142.125 445.301 141.836C444.316 141.547 443.465 141.168 442.746 140.699L443.754 138.707C444.613 139.207 445.398 139.562 446.109 139.773C446.828 139.977 447.547 140.078 448.266 140.078C449.242 140.078 449.953 139.977 450.398 139.773C450.844 139.562 451.066 139.273 451.066 138.906C451.066 138.727 451.004 138.578 450.879 138.461C450.754 138.344 450.547 138.238 450.258 138.145C449.969 138.043 449.586 137.945 449.109 137.852C448.641 137.75 448.055 137.645 447.352 137.535C446.789 137.441 446.254 137.328 445.746 137.195C445.246 137.055 444.805 136.859 444.422 136.609C444.039 136.359 443.73 136.043 443.496 135.66C443.27 135.277 443.156 134.797 443.156 134.219C443.156 133.633 443.305 133.125 443.602 132.695C443.906 132.258 444.301 131.898 444.785 131.617C445.277 131.336 445.828 131.133 446.438 131.008C447.047 130.883 447.656 130.82 448.266 130.82C449.125 130.82 449.957 130.934 450.762 131.16C451.574 131.379 452.285 131.695 452.895 132.109L451.934 133.984C451.324 133.602 450.73 133.344 450.152 133.211C449.582 133.07 448.953 133 448.266 133C447.977 133 447.676 133.016 447.363 133.047C447.051 133.078 446.762 133.141 446.496 133.234C446.23 133.32 446.008 133.441 445.828 133.598C445.656 133.746 445.57 133.93 445.57 134.148C445.57 134.438 445.824 134.676 446.332 134.863C446.848 135.043 447.723 135.223 448.957 135.402C449.629 135.496 450.242 135.617 450.797 135.766C451.352 135.906 451.828 136.102 452.227 136.352C452.625 136.594 452.934 136.91 453.152 137.301C453.379 137.684 453.492 138.16 453.492 138.73ZM462.902 129.66H459.949V126.707H462.902V129.66ZM465.129 142H457.793V139.82H460.207V133.27H457.793V131.078H462.633V139.82H465.129V142ZM479.988 142H477.562V134.512C477.562 133.996 477.508 133.617 477.398 133.375C477.297 133.125 477.113 133 476.848 133C476.363 133 476.055 133.273 475.922 133.82C475.797 134.359 475.734 135.148 475.734 136.188V142H473.309V134.512C473.309 133.996 473.254 133.617 473.145 133.375C473.035 133.125 472.844 133 472.57 133C472.094 133 471.793 133.273 471.668 133.82C471.551 134.359 471.492 135.148 471.492 136.188V142H469.066V131.078H471.516V132.66C471.688 132.059 471.941 131.602 472.277 131.289C472.613 130.977 473.062 130.82 473.625 130.82C474.094 130.82 474.484 130.965 474.797 131.254C475.117 131.535 475.336 131.926 475.453 132.426C475.727 131.879 476.008 131.477 476.297 131.219C476.594 130.953 477.047 130.82 477.656 130.82C478.406 130.82 478.98 131.098 479.379 131.652C479.785 132.199 479.988 133.031 479.988 134.148V142ZM482.742 131.078H485.168V132.062C485.629 131.648 486.094 131.34 486.562 131.137C487.039 130.926 487.582 130.82 488.191 130.82C488.895 130.82 489.547 130.965 490.148 131.254C490.75 131.535 491.266 131.93 491.695 132.438C492.125 132.938 492.465 133.543 492.715 134.254C492.965 134.957 493.09 135.723 493.09 136.551C493.09 137.387 492.965 138.156 492.715 138.859C492.465 139.562 492.125 140.168 491.695 140.676C491.266 141.176 490.75 141.566 490.148 141.848C489.547 142.129 488.895 142.27 488.191 142.27C487.582 142.27 487.039 142.16 486.562 141.941C486.094 141.723 485.629 141.406 485.168 140.992V146.371H482.742V131.078ZM485.168 139.07C485.457 139.391 485.824 139.641 486.27 139.82C486.723 139.992 487.156 140.078 487.57 140.078C488.484 140.078 489.227 139.754 489.797 139.105C490.375 138.457 490.664 137.605 490.664 136.551C490.664 135.496 490.375 134.641 489.797 133.984C489.227 133.328 488.484 133 487.57 133C487.156 133 486.723 133.086 486.27 133.258C485.824 133.422 485.457 133.664 485.168 133.984V139.07ZM504.457 142H497.121V139.82H499.512V128.898H497.121V126.707H501.938V139.82H504.457V142ZM515.309 129.66H512.355V126.707H515.309V129.66ZM517.535 142H510.199V139.82H512.613V133.27H510.199V131.078H515.039V139.82H517.535V142ZM532.102 138.73C532.102 139.441 531.941 140.02 531.621 140.465C531.301 140.91 530.887 141.27 530.379 141.543C529.879 141.816 529.316 142.004 528.691 142.105C528.074 142.215 527.469 142.27 526.875 142.27C525.883 142.27 524.895 142.125 523.91 141.836C522.926 141.547 522.074 141.168 521.355 140.699L522.363 138.707C523.223 139.207 524.008 139.562 524.719 139.773C525.438 139.977 526.156 140.078 526.875 140.078C527.852 140.078 528.562 139.977 529.008 139.773C529.453 139.562 529.676 139.273 529.676 138.906C529.676 138.727 529.613 138.578 529.488 138.461C529.363 138.344 529.156 138.238 528.867 138.145C528.578 138.043 528.195 137.945 527.719 137.852C527.25 137.75 526.664 137.645 525.961 137.535C525.398 137.441 524.863 137.328 524.355 137.195C523.855 137.055 523.414 136.859 523.031 136.609C522.648 136.359 522.34 136.043 522.105 135.66C521.879 135.277 521.766 134.797 521.766 134.219C521.766 133.633 521.914 133.125 522.211 132.695C522.516 132.258 522.91 131.898 523.395 131.617C523.887 131.336 524.438 131.133 525.047 131.008C525.656 130.883 526.266 130.82 526.875 130.82C527.734 130.82 528.566 130.934 529.371 131.16C530.184 131.379 530.895 131.695 531.504 132.109L530.543 133.984C529.934 133.602 529.34 133.344 528.762 133.211C528.191 133.07 527.562 133 526.875 133C526.586 133 526.285 133.016 525.973 133.047C525.66 133.078 525.371 133.141 525.105 133.234C524.84 133.32 524.617 133.441 524.438 133.598C524.266 133.746 524.18 133.93 524.18 134.148C524.18 134.438 524.434 134.676 524.941 134.863C525.457 135.043 526.332 135.223 527.566 135.402C528.238 135.496 528.852 135.617 529.406 135.766C529.961 135.906 530.438 136.102 530.836 136.352C531.234 136.594 531.543 136.91 531.762 137.301C531.988 137.684 532.102 138.16 532.102 138.73ZM545.613 138.52C545.488 139.668 545.035 140.582 544.254 141.262C543.48 141.934 542.512 142.27 541.348 142.27C540.707 142.27 540.121 142.164 539.59 141.953C539.059 141.742 538.605 141.449 538.23 141.074C537.855 140.699 537.562 140.25 537.352 139.727C537.148 139.195 537.047 138.617 537.047 137.992V133.27H534.574V131.078H537.047V126.707H539.473V131.078H544.055V133.27H539.473V137.992C539.473 138.695 539.645 139.219 539.988 139.562C540.332 139.906 540.785 140.078 541.348 140.078C542.035 140.078 542.547 139.879 542.883 139.48C543.219 139.082 543.418 138.602 543.48 138.039L545.613 138.52ZM554.613 129.66H551.66V126.707H554.613V129.66ZM556.84 142H549.504V139.82H551.918V133.27H549.504V131.078H554.344V139.82H556.84V142ZM571.289 140.441C570.586 141.145 569.844 141.625 569.062 141.883C568.289 142.141 567.449 142.27 566.543 142.27C565.629 142.27 564.797 142.133 564.047 141.859C563.305 141.586 562.672 141.203 562.148 140.711C561.633 140.211 561.234 139.609 560.953 138.906C560.68 138.203 560.543 137.418 560.543 136.551C560.543 135.723 560.68 134.957 560.953 134.254C561.234 133.543 561.609 132.938 562.078 132.438C562.555 131.93 563.113 131.535 563.754 131.254C564.395 130.965 565.074 130.82 565.793 130.82C566.543 130.82 567.195 130.977 567.75 131.289C568.305 131.602 568.707 132.059 568.957 132.66V131.078H571.125V136.164H568.957C568.957 135.203 568.691 134.438 568.16 133.867C567.637 133.289 566.953 133 566.109 133C565.773 133 565.418 133.07 565.043 133.211C564.676 133.344 564.336 133.555 564.023 133.844C563.719 134.133 563.465 134.5 563.262 134.945C563.059 135.391 562.957 135.926 562.957 136.551C562.957 137.16 563.055 137.688 563.25 138.133C563.445 138.57 563.699 138.934 564.012 139.223C564.332 139.504 564.707 139.719 565.137 139.867C565.574 140.008 566.023 140.078 566.484 140.078C567.273 140.078 567.957 139.957 568.535 139.715C569.121 139.465 569.625 139.137 570.047 138.73L571.289 140.441ZM111.387 166H104.051V163.82H106.465V152.898H104.051V150.707H111.387V152.898H108.891V163.82H111.387V166ZM125.672 166H123.246V159.262C123.246 158.41 123.086 157.82 122.766 157.492C122.445 157.164 121.98 157 121.371 157C120.473 157 119.738 157.363 119.168 158.09C118.605 158.816 118.324 159.82 118.324 161.102V166H115.898V155.078H118.324V157.82C118.566 156.875 119.016 156.141 119.672 155.617C120.328 155.086 121.137 154.82 122.098 154.82C123.215 154.82 124.09 155.184 124.723 155.91C125.355 156.637 125.672 157.754 125.672 159.262V166ZM129 155.078H131.426V156.062C131.887 155.648 132.352 155.34 132.82 155.137C133.297 154.926 133.84 154.82 134.449 154.82C135.152 154.82 135.805 154.965 136.406 155.254C137.008 155.535 137.523 155.93 137.953 156.438C138.383 156.938 138.723 157.543 138.973 158.254C139.223 158.957 139.348 159.723 139.348 160.551C139.348 161.387 139.223 162.156 138.973 162.859C138.723 163.562 138.383 164.168 137.953 164.676C137.523 165.176 137.008 165.566 136.406 165.848C135.805 166.129 135.152 166.27 134.449 166.27C133.84 166.27 133.297 166.16 132.82 165.941C132.352 165.723 131.887 165.406 131.426 164.992V170.371H129V155.078ZM131.426 163.07C131.715 163.391 132.082 163.641 132.527 163.82C132.98 163.992 133.414 164.078 133.828 164.078C134.742 164.078 135.484 163.754 136.055 163.105C136.633 162.457 136.922 161.605 136.922 160.551C136.922 159.496 136.633 158.641 136.055 157.984C135.484 157.328 134.742 157 133.828 157C133.414 157 132.98 157.086 132.527 157.258C132.082 157.422 131.715 157.664 131.426 157.984V163.07ZM142.102 155.078H144.527V161.828C144.527 162.672 144.688 163.258 145.008 163.586C145.328 163.914 145.793 164.078 146.402 164.078C147.293 164.078 148.023 163.715 148.594 162.988C149.164 162.262 149.449 161.258 149.449 159.977V155.078H151.875V166H149.449V163.27C149.207 164.207 148.758 164.941 148.102 165.473C147.445 166.004 146.637 166.27 145.676 166.27C144.559 166.27 143.684 165.906 143.051 165.18C142.418 164.445 142.102 163.328 142.102 161.828V155.078ZM165.668 162.52C165.543 163.668 165.09 164.582 164.309 165.262C163.535 165.934 162.566 166.27 161.402 166.27C160.762 166.27 160.176 166.164 159.645 165.953C159.113 165.742 158.66 165.449 158.285 165.074C157.91 164.699 157.617 164.25 157.406 163.727C157.203 163.195 157.102 162.617 157.102 161.992V157.27H154.629V155.078H157.102V150.707H159.527V155.078H164.109V157.27H159.527V161.992C159.527 162.695 159.699 163.219 160.043 163.562C160.387 163.906 160.84 164.078 161.402 164.078C162.09 164.078 162.602 163.879 162.938 163.48C163.273 163.082 163.473 162.602 163.535 162.039L165.668 162.52ZM176.848 149.992L178.652 150.883L169.676 168.953L167.871 168.062L176.848 149.992ZM180.445 158.348C180.445 157.324 180.555 156.336 180.773 155.383C180.992 154.43 181.332 153.59 181.793 152.863C182.254 152.137 182.855 151.555 183.598 151.117C184.348 150.672 185.25 150.449 186.305 150.449C187.359 150.449 188.258 150.672 189 151.117C189.75 151.555 190.359 152.137 190.828 152.863C191.297 153.59 191.637 154.43 191.848 155.383C192.059 156.336 192.164 157.324 192.164 158.348C192.164 159.371 192.059 160.359 191.848 161.312C191.637 162.258 191.301 163.102 190.84 163.844C190.379 164.578 189.773 165.168 189.023 165.613C188.281 166.051 187.375 166.27 186.305 166.27C185.234 166.27 184.324 166.051 183.574 165.613C182.832 165.168 182.227 164.578 181.758 163.844C181.297 163.102 180.965 162.258 180.762 161.312C180.551 160.359 180.445 159.371 180.445 158.348ZM182.871 158.348C182.871 159.035 182.922 159.723 183.023 160.41C183.133 161.098 183.312 161.715 183.562 162.262C183.82 162.801 184.168 163.238 184.605 163.574C185.051 163.91 185.617 164.078 186.305 164.078C186.992 164.078 187.555 163.91 187.992 163.574C188.438 163.238 188.785 162.801 189.035 162.262C189.293 161.715 189.473 161.098 189.574 160.41C189.684 159.723 189.738 159.035 189.738 158.348C189.738 157.66 189.684 156.977 189.574 156.297C189.473 155.617 189.293 155.004 189.035 154.457C188.785 153.91 188.434 153.469 187.98 153.133C187.535 152.797 186.977 152.629 186.305 152.629C185.188 152.629 184.336 153.133 183.75 154.141C183.164 155.148 182.871 156.551 182.871 158.348ZM194.508 155.078H196.934V161.828C196.934 162.672 197.094 163.258 197.414 163.586C197.734 163.914 198.199 164.078 198.809 164.078C199.699 164.078 200.43 163.715 201 162.988C201.57 162.262 201.855 161.258 201.855 159.977V155.078H204.281V166H201.855V163.27C201.613 164.207 201.164 164.941 200.508 165.473C199.852 166.004 199.043 166.27 198.082 166.27C196.965 166.27 196.09 165.906 195.457 165.18C194.824 164.445 194.508 163.328 194.508 161.828V155.078ZM218.074 162.52C217.949 163.668 217.496 164.582 216.715 165.262C215.941 165.934 214.973 166.27 213.809 166.27C213.168 166.27 212.582 166.164 212.051 165.953C211.52 165.742 211.066 165.449 210.691 165.074C210.316 164.699 210.023 164.25 209.812 163.727C209.609 163.195 209.508 162.617 209.508 161.992V157.27H207.035V155.078H209.508V150.707H211.934V155.078H216.516V157.27H211.934V161.992C211.934 162.695 212.105 163.219 212.449 163.562C212.793 163.906 213.246 164.078 213.809 164.078C214.496 164.078 215.008 163.879 215.344 163.48C215.68 163.082 215.879 162.602 215.941 162.039L218.074 162.52ZM220.711 155.078H223.137V156.062C223.598 155.648 224.062 155.34 224.531 155.137C225.008 154.926 225.551 154.82 226.16 154.82C226.863 154.82 227.516 154.965 228.117 155.254C228.719 155.535 229.234 155.93 229.664 156.438C230.094 156.938 230.434 157.543 230.684 158.254C230.934 158.957 231.059 159.723 231.059 160.551C231.059 161.387 230.934 162.156 230.684 162.859C230.434 163.562 230.094 164.168 229.664 164.676C229.234 165.176 228.719 165.566 228.117 165.848C227.516 166.129 226.863 166.27 226.16 166.27C225.551 166.27 225.008 166.16 224.531 165.941C224.062 165.723 223.598 165.406 223.137 164.992V170.371H220.711V155.078ZM223.137 163.07C223.426 163.391 223.793 163.641 224.238 163.82C224.691 163.992 225.125 164.078 225.539 164.078C226.453 164.078 227.195 163.754 227.766 163.105C228.344 162.457 228.633 161.605 228.633 160.551C228.633 159.496 228.344 158.641 227.766 157.984C227.195 157.328 226.453 157 225.539 157C225.125 157 224.691 157.086 224.238 157.258C223.793 157.422 223.426 157.664 223.137 157.984V163.07ZM233.812 155.078H236.238V161.828C236.238 162.672 236.398 163.258 236.719 163.586C237.039 163.914 237.504 164.078 238.113 164.078C239.004 164.078 239.734 163.715 240.305 162.988C240.875 162.262 241.16 161.258 241.16 159.977V155.078H243.586V166H241.16V163.27C240.918 164.207 240.469 164.941 239.812 165.473C239.156 166.004 238.348 166.27 237.387 166.27C236.27 166.27 235.395 165.906 234.762 165.18C234.129 164.445 233.812 163.328 233.812 161.828V155.078ZM257.379 162.52C257.254 163.668 256.801 164.582 256.02 165.262C255.246 165.934 254.277 166.27 253.113 166.27C252.473 166.27 251.887 166.164 251.355 165.953C250.824 165.742 250.371 165.449 249.996 165.074C249.621 164.699 249.328 164.25 249.117 163.727C248.914 163.195 248.812 162.617 248.812 161.992V157.27H246.34V155.078H248.812V150.707H251.238V155.078H255.82V157.27H251.238V161.992C251.238 162.695 251.41 163.219 251.754 163.562C252.098 163.906 252.551 164.078 253.113 164.078C253.801 164.078 254.312 163.879 254.648 163.48C254.984 163.082 255.184 162.602 255.246 162.039L257.379 162.52ZM283.465 157.27H279.211V163.82H281.707V166H274.371V163.82H276.785V157.27H274.371V155.078H276.785C276.785 153.578 277.246 152.434 278.168 151.645C279.09 150.848 280.336 150.449 281.906 150.449C282.141 150.449 282.391 150.461 282.656 150.484C282.922 150.508 283.191 150.535 283.465 150.566V152.699C282.996 152.652 282.57 152.629 282.188 152.629C281.562 152.629 281.059 152.676 280.676 152.77C280.293 152.855 279.992 153 279.773 153.203C279.562 153.398 279.414 153.652 279.328 153.965C279.25 154.277 279.211 154.648 279.211 155.078H283.465V157.27ZM286.219 155.078H288.645V161.828C288.645 162.672 288.805 163.258 289.125 163.586C289.445 163.914 289.91 164.078 290.52 164.078C291.41 164.078 292.141 163.715 292.711 162.988C293.281 162.262 293.566 161.258 293.566 159.977V155.078H295.992V166H293.566V163.27C293.324 164.207 292.875 164.941 292.219 165.473C291.562 166.004 290.754 166.27 289.793 166.27C288.676 166.27 287.801 165.906 287.168 165.18C286.535 164.445 286.219 163.328 286.219 161.828V155.078ZM309.094 166H306.668V159.262C306.668 158.41 306.508 157.82 306.188 157.492C305.867 157.164 305.402 157 304.793 157C303.895 157 303.16 157.363 302.59 158.09C302.027 158.816 301.746 159.82 301.746 161.102V166H299.32V155.078H301.746V157.82C301.988 156.875 302.438 156.141 303.094 155.617C303.75 155.086 304.559 154.82 305.52 154.82C306.637 154.82 307.512 155.184 308.145 155.91C308.777 156.637 309.094 157.754 309.094 159.262V166ZM322.359 164.441C321.656 165.145 320.914 165.625 320.133 165.883C319.359 166.141 318.52 166.27 317.613 166.27C316.699 166.27 315.867 166.133 315.117 165.859C314.375 165.586 313.742 165.203 313.219 164.711C312.703 164.211 312.305 163.609 312.023 162.906C311.75 162.203 311.613 161.418 311.613 160.551C311.613 159.723 311.75 158.957 312.023 158.254C312.305 157.543 312.68 156.938 313.148 156.438C313.625 155.93 314.184 155.535 314.824 155.254C315.465 154.965 316.145 154.82 316.863 154.82C317.613 154.82 318.266 154.977 318.82 155.289C319.375 155.602 319.777 156.059 320.027 156.66V155.078H322.195V160.164H320.027C320.027 159.203 319.762 158.438 319.23 157.867C318.707 157.289 318.023 157 317.18 157C316.844 157 316.488 157.07 316.113 157.211C315.746 157.344 315.406 157.555 315.094 157.844C314.789 158.133 314.535 158.5 314.332 158.945C314.129 159.391 314.027 159.926 314.027 160.551C314.027 161.16 314.125 161.688 314.32 162.133C314.516 162.57 314.77 162.934 315.082 163.223C315.402 163.504 315.777 163.719 316.207 163.867C316.645 164.008 317.094 164.078 317.555 164.078C318.344 164.078 319.027 163.957 319.605 163.715C320.191 163.465 320.695 163.137 321.117 162.73L322.359 164.441ZM335.988 162.52C335.863 163.668 335.41 164.582 334.629 165.262C333.855 165.934 332.887 166.27 331.723 166.27C331.082 166.27 330.496 166.164 329.965 165.953C329.434 165.742 328.98 165.449 328.605 165.074C328.23 164.699 327.938 164.25 327.727 163.727C327.523 163.195 327.422 162.617 327.422 161.992V157.27H324.949V155.078H327.422V150.707H329.848V155.078H334.43V157.27H329.848V161.992C329.848 162.695 330.02 163.219 330.363 163.562C330.707 163.906 331.16 164.078 331.723 164.078C332.41 164.078 332.922 163.879 333.258 163.48C333.594 163.082 333.793 162.602 333.855 162.039L335.988 162.52ZM344.988 153.66H342.035V150.707H344.988V153.66ZM347.215 166H339.879V163.82H342.293V157.27H339.879V155.078H344.719V163.82H347.215V166ZM362.355 160.551C362.355 161.402 362.219 162.176 361.945 162.871C361.68 163.566 361.293 164.168 360.785 164.676C360.285 165.176 359.684 165.566 358.98 165.848C358.277 166.129 357.492 166.27 356.625 166.27C355.773 166.27 354.996 166.129 354.293 165.848C353.59 165.566 352.984 165.176 352.477 164.676C351.977 164.168 351.59 163.566 351.316 162.871C351.051 162.176 350.918 161.402 350.918 160.551C350.918 159.723 351.051 158.957 351.316 158.254C351.59 157.543 351.977 156.934 352.477 156.426C352.984 155.91 353.59 155.516 354.293 155.242C354.996 154.961 355.773 154.82 356.625 154.82C357.492 154.82 358.277 154.961 358.98 155.242C359.684 155.516 360.285 155.91 360.785 156.426C361.293 156.934 361.68 157.543 361.945 158.254C362.219 158.957 362.355 159.723 362.355 160.551ZM359.941 160.551C359.941 160.059 359.863 159.594 359.707 159.156C359.559 158.711 359.34 158.332 359.051 158.02C358.762 157.707 358.41 157.461 357.996 157.281C357.59 157.094 357.133 157 356.625 157C356.109 157 355.648 157.094 355.242 157.281C354.836 157.461 354.492 157.707 354.211 158.02C353.93 158.332 353.711 158.711 353.555 159.156C353.406 159.594 353.332 160.059 353.332 160.551C353.332 161.066 353.406 161.535 353.555 161.957C353.711 162.379 353.93 162.75 354.211 163.07C354.492 163.391 354.836 163.641 355.242 163.82C355.648 163.992 356.109 164.078 356.625 164.078C357.133 164.078 357.59 163.992 357.996 163.82C358.41 163.641 358.762 163.391 359.051 163.07C359.34 162.75 359.559 162.379 359.707 161.957C359.863 161.535 359.941 161.066 359.941 160.551ZM374.602 166H372.176V159.262C372.176 158.41 372.016 157.82 371.695 157.492C371.375 157.164 370.91 157 370.301 157C369.402 157 368.668 157.363 368.098 158.09C367.535 158.816 367.254 159.82 367.254 161.102V166H364.828V155.078H367.254V157.82C367.496 156.875 367.945 156.141 368.602 155.617C369.258 155.086 370.066 154.82 371.027 154.82C372.145 154.82 373.02 155.184 373.652 155.91C374.285 156.637 374.602 157.754 374.602 159.262V166ZM387.984 162.73C387.984 163.441 387.824 164.02 387.504 164.465C387.184 164.91 386.77 165.27 386.262 165.543C385.762 165.816 385.199 166.004 384.574 166.105C383.957 166.215 383.352 166.27 382.758 166.27C381.766 166.27 380.777 166.125 379.793 165.836C378.809 165.547 377.957 165.168 377.238 164.699L378.246 162.707C379.105 163.207 379.891 163.562 380.602 163.773C381.32 163.977 382.039 164.078 382.758 164.078C383.734 164.078 384.445 163.977 384.891 163.773C385.336 163.562 385.559 163.273 385.559 162.906C385.559 162.727 385.496 162.578 385.371 162.461C385.246 162.344 385.039 162.238 384.75 162.145C384.461 162.043 384.078 161.945 383.602 161.852C383.133 161.75 382.547 161.645 381.844 161.535C381.281 161.441 380.746 161.328 380.238 161.195C379.738 161.055 379.297 160.859 378.914 160.609C378.531 160.359 378.223 160.043 377.988 159.66C377.762 159.277 377.648 158.797 377.648 158.219C377.648 157.633 377.797 157.125 378.094 156.695C378.398 156.258 378.793 155.898 379.277 155.617C379.77 155.336 380.32 155.133 380.93 155.008C381.539 154.883 382.148 154.82 382.758 154.82C383.617 154.82 384.449 154.934 385.254 155.16C386.066 155.379 386.777 155.695 387.387 156.109L386.426 157.984C385.816 157.602 385.223 157.344 384.645 157.211C384.074 157.07 383.445 157 382.758 157C382.469 157 382.168 157.016 381.855 157.047C381.543 157.078 381.254 157.141 380.988 157.234C380.723 157.32 380.5 157.441 380.32 157.598C380.148 157.746 380.062 157.93 380.062 158.148C380.062 158.438 380.316 158.676 380.824 158.863C381.34 159.043 382.215 159.223 383.449 159.402C384.121 159.496 384.734 159.617 385.289 159.766C385.844 159.906 386.32 160.102 386.719 160.352C387.117 160.594 387.426 160.91 387.645 161.301C387.871 161.684 387.984 162.16 387.984 162.73ZM414.48 157.27H410.227V163.82H412.723V166H405.387V163.82H407.801V157.27H405.387V155.078H407.801C407.801 153.578 408.262 152.434 409.184 151.645C410.105 150.848 411.352 150.449 412.922 150.449C413.156 150.449 413.406 150.461 413.672 150.484C413.938 150.508 414.207 150.535 414.48 150.566V152.699C414.012 152.652 413.586 152.629 413.203 152.629C412.578 152.629 412.074 152.676 411.691 152.77C411.309 152.855 411.008 153 410.789 153.203C410.578 153.398 410.43 153.652 410.344 153.965C410.266 154.277 410.227 154.648 410.227 155.078H414.48V157.27ZM427.863 160.551C427.863 161.402 427.727 162.176 427.453 162.871C427.188 163.566 426.801 164.168 426.293 164.676C425.793 165.176 425.191 165.566 424.488 165.848C423.785 166.129 423 166.27 422.133 166.27C421.281 166.27 420.504 166.129 419.801 165.848C419.098 165.566 418.492 165.176 417.984 164.676C417.484 164.168 417.098 163.566 416.824 162.871C416.559 162.176 416.426 161.402 416.426 160.551C416.426 159.723 416.559 158.957 416.824 158.254C417.098 157.543 417.484 156.934 417.984 156.426C418.492 155.91 419.098 155.516 419.801 155.242C420.504 154.961 421.281 154.82 422.133 154.82C423 154.82 423.785 154.961 424.488 155.242C425.191 155.516 425.793 155.91 426.293 156.426C426.801 156.934 427.188 157.543 427.453 158.254C427.727 158.957 427.863 159.723 427.863 160.551ZM425.449 160.551C425.449 160.059 425.371 159.594 425.215 159.156C425.066 158.711 424.848 158.332 424.559 158.02C424.27 157.707 423.918 157.461 423.504 157.281C423.098 157.094 422.641 157 422.133 157C421.617 157 421.156 157.094 420.75 157.281C420.344 157.461 420 157.707 419.719 158.02C419.438 158.332 419.219 158.711 419.062 159.156C418.914 159.594 418.84 160.059 418.84 160.551C418.84 161.066 418.914 161.535 419.062 161.957C419.219 162.379 419.438 162.75 419.719 163.07C420 163.391 420.344 163.641 420.75 163.82C421.156 163.992 421.617 164.078 422.133 164.078C422.641 164.078 423.098 163.992 423.504 163.82C423.918 163.641 424.27 163.391 424.559 163.07C424.848 162.75 425.066 162.379 425.215 161.957C425.371 161.535 425.449 161.066 425.449 160.551ZM440.414 157.668C440.125 157.527 439.828 157.422 439.523 157.352C439.227 157.273 438.883 157.234 438.492 157.234C437.953 157.234 437.445 157.316 436.969 157.48C436.5 157.637 436.094 157.875 435.75 158.195C435.406 158.516 435.137 158.918 434.941 159.402C434.754 159.879 434.66 160.445 434.66 161.102V163.82H437.109V166H429.762V163.82H432.234V157.27H429.762V155.078H434.66V157.82C435.059 156.727 435.645 155.953 436.418 155.5C437.199 155.047 438.125 154.82 439.195 154.82C439.531 154.82 439.883 154.855 440.25 154.926C440.617 154.996 440.977 155.121 441.328 155.301L440.414 157.668ZM466.887 155.277C466.887 156.809 466.422 157.949 465.492 158.699C464.562 159.441 463.266 159.812 461.602 159.812H458.965V166H456.539V150.707H461.578C463.258 150.707 464.562 151.094 465.492 151.867C466.422 152.633 466.887 153.77 466.887 155.277ZM464.461 155.242C464.461 154.461 464.203 153.875 463.688 153.484C463.18 153.094 462.484 152.898 461.602 152.898H458.965V157.621H461.602C462.484 157.621 463.18 157.426 463.688 157.035C464.203 156.645 464.461 156.047 464.461 155.242ZM478.254 166H470.918V163.82H473.309V152.898H470.918V150.707H475.734V163.82H478.254V166ZM482.742 155.078H485.168V161.828C485.168 162.672 485.328 163.258 485.648 163.586C485.969 163.914 486.434 164.078 487.043 164.078C487.934 164.078 488.664 163.715 489.234 162.988C489.805 162.262 490.09 161.258 490.09 159.977V155.078H492.516V166H490.09V163.27C489.848 164.207 489.398 164.941 488.742 165.473C488.086 166.004 487.277 166.27 486.316 166.27C485.199 166.27 484.324 165.906 483.691 165.18C483.059 164.445 482.742 163.328 482.742 161.828V155.078ZM506.191 166H503.766V158.512C503.766 157.996 503.711 157.617 503.602 157.375C503.5 157.125 503.316 157 503.051 157C502.566 157 502.258 157.273 502.125 157.82C502 158.359 501.938 159.148 501.938 160.188V166H499.512V158.512C499.512 157.996 499.457 157.617 499.348 157.375C499.238 157.125 499.047 157 498.773 157C498.297 157 497.996 157.273 497.871 157.82C497.754 158.359 497.695 159.148 497.695 160.188V166H495.27V155.078H497.719V156.66C497.891 156.059 498.145 155.602 498.48 155.289C498.816 154.977 499.266 154.82 499.828 154.82C500.297 154.82 500.688 154.965 501 155.254C501.32 155.535 501.539 155.926 501.656 156.426C501.93 155.879 502.211 155.477 502.5 155.219C502.797 154.953 503.25 154.82 503.859 154.82C504.609 154.82 505.184 155.098 505.582 155.652C505.988 156.199 506.191 157.031 506.191 158.148V166ZM508.945 150.707H511.371V156.062C511.832 155.648 512.297 155.34 512.766 155.137C513.242 154.926 513.785 154.82 514.395 154.82C515.098 154.82 515.75 154.965 516.352 155.254C516.953 155.535 517.469 155.93 517.898 156.438C518.328 156.938 518.668 157.543 518.918 158.254C519.168 158.957 519.293 159.723 519.293 160.551C519.293 161.387 519.168 162.156 518.918 162.859C518.668 163.562 518.328 164.168 517.898 164.676C517.469 165.176 516.953 165.566 516.352 165.848C515.75 166.129 515.098 166.27 514.395 166.27C513.785 166.27 513.242 166.16 512.766 165.941C512.297 165.723 511.832 165.406 511.371 164.992V166H508.945V150.707ZM511.371 163.094C511.66 163.414 512.027 163.66 512.473 163.832C512.926 163.996 513.359 164.078 513.773 164.078C514.688 164.078 515.43 163.754 516 163.105C516.578 162.457 516.867 161.605 516.867 160.551C516.867 159.496 516.578 158.641 516 157.984C515.43 157.328 514.688 157 513.773 157C513.359 157 512.926 157.086 512.473 157.258C512.027 157.422 511.66 157.664 511.371 157.984V163.094ZM528.41 153.66H525.457V150.707H528.41V153.66ZM530.637 166H523.301V163.82H525.715V157.27H523.301V155.078H528.141V163.82H530.637V166ZM544.922 166H542.496V159.262C542.496 158.41 542.336 157.82 542.016 157.492C541.695 157.164 541.23 157 540.621 157C539.723 157 538.988 157.363 538.418 158.09C537.855 158.816 537.574 159.82 537.574 161.102V166H535.148V155.078H537.574V157.82C537.816 156.875 538.266 156.141 538.922 155.617C539.578 155.086 540.387 154.82 541.348 154.82C542.465 154.82 543.34 155.184 543.973 155.91C544.605 156.637 544.922 157.754 544.922 159.262V166ZM558.023 165.883C558.023 166.633 557.895 167.301 557.637 167.887C557.379 168.473 557.016 168.969 556.547 169.375C556.086 169.781 555.539 170.09 554.906 170.301C554.281 170.52 553.582 170.629 552.809 170.629C550.91 170.629 549.289 170.055 547.945 168.906L549.094 167.031C550.211 167.992 551.449 168.473 552.809 168.473C553.645 168.473 554.316 168.266 554.824 167.852C555.34 167.445 555.598 166.805 555.598 165.93V164.758C555.098 165.188 554.617 165.508 554.156 165.719C553.695 165.922 553.16 166.023 552.551 166.023C551.848 166.023 551.195 165.875 550.594 165.578C549.992 165.281 549.473 164.879 549.035 164.371C548.605 163.855 548.266 163.258 548.016 162.578C547.773 161.898 547.652 161.176 547.652 160.41C547.652 159.645 547.773 158.922 548.016 158.242C548.266 157.555 548.605 156.961 549.035 156.461C549.473 155.953 549.992 155.555 550.594 155.266C551.195 154.969 551.848 154.82 552.551 154.82C553.16 154.82 553.703 154.926 554.18 155.137C554.656 155.34 555.129 155.648 555.598 156.062V155.078H558.023V165.883ZM555.598 157.984C555.309 157.664 554.934 157.422 554.473 157.258C554.02 157.086 553.578 157 553.148 157C552.234 157 551.492 157.32 550.922 157.961C550.359 158.602 550.078 159.418 550.078 160.41C550.078 160.902 550.152 161.359 550.301 161.781C550.457 162.195 550.668 162.555 550.934 162.859C551.207 163.164 551.531 163.406 551.906 163.586C552.289 163.758 552.703 163.844 553.148 163.844C553.578 163.844 554.02 163.758 554.473 163.586C554.934 163.406 555.309 163.156 555.598 162.836V157.984Z" fill="black"/>
<defs>
<filter id="filter0_d_267_18" x="0" y="106" width="665" height="84" filterUnits="userSpaceOnUse" color-interpolation-filters="sRGB">
<feFlood flood-opacity="0" result="BackgroundImageFix"/>
<feColorMatrix in="SourceAlpha" type="matrix" values="0 0 0 0 0 0 0 0 0 0 0 0 0 0 0 0 0 0 127 0" result="hardAlpha"/>
<feOffset dx="4" dy="4"/>
<feComposite in2="hardAlpha" operator="out"/>
<feColorMatrix type="matrix" values="0 0 0 0 0 0 0 0 0 0 0 0 0 0 0 0 0 0 1 0"/>
<feBlend mode="normal" in2="BackgroundImageFix" result="effect1_dropShadow_267_18"/>
<feBlend mode="normal" in="SourceGraphic" in2="effect1_dropShadow_267_18" result="shape"/>
</filter>
</defs>
</svg>
