<svg width="665" height="201" viewBox="0 0 665 201" fill="none" xmlns="http://www.w3.org/2000/svg">
<g filter="url(#filter0_d_266_116)">
<rect x="22.5" y="122.5" width="619" height="69" fill="#B6FFB6" stroke="black"/>
<rect x="620.5" y="117.5" width="40" height="79" fill="#B6FFB6" stroke="black"/>
<rect x="0.5" y="117.5" width="40" height="79" fill="#B6FFB6" stroke="black"/>
</g>
<path d="M25.1136 5.63636H55.4545L87.5 83.8182H88.8636L120.909 5.63636H151.25V122H127.386V46.2614H126.42L96.3068 121.432H80.0568L49.9432 45.9773H48.9773V122H25.1136V5.63636ZM215.577 122H189.213L229.384 5.63636H261.088L301.202 122H274.838L245.69 32.2273H244.781L215.577 122ZM213.929 76.2614H276.202V95.4659H213.929V76.2614ZM339.207 122V5.63636H385.116C393.904 5.63636 401.404 7.20833 407.616 10.3523C413.866 13.4583 418.62 17.8712 421.878 23.5909C425.173 29.2727 426.821 35.9583 426.821 43.6477C426.821 51.375 425.154 58.0227 421.821 63.5909C418.488 69.1212 413.658 73.3636 407.332 76.3182C401.045 79.2727 393.431 80.75 384.491 80.75H353.753V60.9773H380.514C385.211 60.9773 389.113 60.3333 392.219 59.0455C395.325 57.7576 397.635 55.8258 399.151 53.25C400.704 50.6742 401.48 47.4735 401.48 43.6477C401.48 39.7841 400.704 36.5265 399.151 33.875C397.635 31.2235 395.306 29.2159 392.162 27.8523C389.056 26.4508 385.135 25.75 380.401 25.75H363.81V122H339.207ZM402.048 69.0455L430.969 122H403.81L375.514 69.0455H402.048ZM492.81 5.63636V122H468.207V5.63636H492.81ZM643.983 63.8182C643.983 76.5076 641.578 87.303 636.767 96.2045C631.994 105.106 625.479 111.905 617.222 116.602C609.002 121.261 599.759 123.591 589.494 123.591C579.153 123.591 569.873 121.242 561.653 116.545C553.434 111.848 546.938 105.049 542.165 96.1477C537.392 87.2462 535.006 76.4697 535.006 63.8182C535.006 51.1288 537.392 40.3333 542.165 31.4318C546.938 22.5303 553.434 15.75 561.653 11.0909C569.873 6.39394 579.153 4.04545 589.494 4.04545C599.759 4.04545 609.002 6.39394 617.222 11.0909C625.479 15.75 631.994 22.5303 636.767 31.4318C641.578 40.3333 643.983 51.1288 643.983 63.8182ZM619.04 63.8182C619.04 55.5985 617.809 48.6667 615.347 43.0227C612.922 37.3788 609.494 33.0985 605.062 30.1818C600.631 27.2652 595.441 25.8068 589.494 25.8068C583.547 25.8068 578.358 27.2652 573.926 30.1818C569.494 33.0985 566.047 37.3788 563.585 43.0227C561.161 48.6667 559.949 55.5985 559.949 63.8182C559.949 72.0379 561.161 78.9697 563.585 84.6136C566.047 90.2576 569.494 94.5379 573.926 97.4545C578.358 100.371 583.547 101.83 589.494 101.83C595.441 101.83 600.631 100.371 605.062 97.4545C609.494 94.5379 612.922 90.2576 615.347 84.6136C617.809 78.9697 619.04 72.0379 619.04 63.8182Z" fill="black"/>
<path d="M85.3477 153H82.9219V142.652L81.3867 148.148H79.5117L78 142.652V153H75.5742V137.707H78.457L80.4492 144.621L82.4414 137.707H85.3477V153ZM88.6758 142.078H91.1016V148.828C91.1016 149.672 91.2617 150.258 91.582 150.586C91.9023 150.914 92.3672 151.078 92.9766 151.078C93.8672 151.078 94.5977 150.715 95.168 149.988C95.7383 149.262 96.0234 148.258 96.0234 146.977V142.078H98.4492V153H96.0234V150.27C95.7812 151.207 95.332 151.941 94.6758 152.473C94.0195 153.004 93.2109 153.27 92.25 153.27C91.1328 153.27 90.2578 152.906 89.625 152.18C88.9922 151.445 88.6758 150.328 88.6758 148.828V142.078ZM110.391 153H103.055V150.82H105.445V139.898H103.055V137.707H107.871V150.82H110.391V153ZM125.344 149.52C125.219 150.668 124.766 151.582 123.984 152.262C123.211 152.934 122.242 153.27 121.078 153.27C120.438 153.27 119.852 153.164 119.32 152.953C118.789 152.742 118.336 152.449 117.961 152.074C117.586 151.699 117.293 151.25 117.082 150.727C116.879 150.195 116.777 149.617 116.777 148.992V144.27H114.305V142.078H116.777V137.707H119.203V142.078H123.785V144.27H119.203V148.992C119.203 149.695 119.375 150.219 119.719 150.562C120.062 150.906 120.516 151.078 121.078 151.078C121.766 151.078 122.277 150.879 122.613 150.48C122.949 150.082 123.148 149.602 123.211 149.039L125.344 149.52ZM134.344 140.66H131.391V137.707H134.344V140.66ZM136.57 153H129.234V150.82H131.648V144.27H129.234V142.078H134.074V150.82H136.57V153ZM162.703 153L161.602 149.355H156.539L155.461 153H152.918L157.688 137.707H160.477L165.246 153H162.703ZM157.184 147.211H160.957L159.082 140.906L157.184 147.211ZM177.059 152.883C177.059 153.633 176.93 154.301 176.672 154.887C176.414 155.473 176.051 155.969 175.582 156.375C175.121 156.781 174.574 157.09 173.941 157.301C173.316 157.52 172.617 157.629 171.844 157.629C169.945 157.629 168.324 157.055 166.98 155.906L168.129 154.031C169.246 154.992 170.484 155.473 171.844 155.473C172.68 155.473 173.352 155.266 173.859 154.852C174.375 154.445 174.633 153.805 174.633 152.93V151.758C174.133 152.188 173.652 152.508 173.191 152.719C172.73 152.922 172.195 153.023 171.586 153.023C170.883 153.023 170.23 152.875 169.629 152.578C169.027 152.281 168.508 151.879 168.07 151.371C167.641 150.855 167.301 150.258 167.051 149.578C166.809 148.898 166.688 148.176 166.688 147.41C166.688 146.645 166.809 145.922 167.051 145.242C167.301 144.555 167.641 143.961 168.07 143.461C168.508 142.953 169.027 142.555 169.629 142.266C170.23 141.969 170.883 141.82 171.586 141.82C172.195 141.82 172.738 141.926 173.215 142.137C173.691 142.34 174.164 142.648 174.633 143.062V142.078H177.059V152.883ZM174.633 144.984C174.344 144.664 173.969 144.422 173.508 144.258C173.055 144.086 172.613 144 172.184 144C171.27 144 170.527 144.32 169.957 144.961C169.395 145.602 169.113 146.418 169.113 147.41C169.113 147.902 169.188 148.359 169.336 148.781C169.492 149.195 169.703 149.555 169.969 149.859C170.242 150.164 170.566 150.406 170.941 150.586C171.324 150.758 171.738 150.844 172.184 150.844C172.613 150.844 173.055 150.758 173.508 150.586C173.969 150.406 174.344 150.156 174.633 149.836V144.984ZM182.039 148.465C182.156 149.215 182.512 149.84 183.105 150.34C183.707 150.832 184.512 151.078 185.52 151.078C186.309 151.078 186.992 150.957 187.57 150.715C188.156 150.465 188.66 150.137 189.082 149.73L190.324 151.441C189.621 152.145 188.875 152.625 188.086 152.883C187.305 153.141 186.449 153.27 185.52 153.27C184.676 153.27 183.891 153.129 183.164 152.848C182.438 152.566 181.809 152.176 181.277 151.676C180.746 151.168 180.328 150.566 180.023 149.871C179.727 149.176 179.578 148.402 179.578 147.551C179.578 146.723 179.715 145.961 179.988 145.266C180.27 144.562 180.66 143.957 181.16 143.449C181.668 142.934 182.273 142.535 182.977 142.254C183.68 141.965 184.457 141.82 185.309 141.82C186.191 141.82 186.992 141.973 187.711 142.277C188.43 142.574 189.043 143.008 189.551 143.578C190.066 144.148 190.469 144.848 190.758 145.676C191.047 146.496 191.191 147.426 191.191 148.465H182.039ZM188.449 146.332C188.324 145.629 187.961 145.066 187.359 144.645C186.758 144.215 186.074 144 185.309 144C184.543 144 183.855 144.215 183.246 144.645C182.637 145.066 182.27 145.629 182.145 146.332H188.449ZM203.262 153H200.836V146.262C200.836 145.41 200.676 144.82 200.355 144.492C200.035 144.164 199.57 144 198.961 144C198.062 144 197.328 144.363 196.758 145.09C196.195 145.816 195.914 146.82 195.914 148.102V153H193.488V142.078H195.914V144.82C196.156 143.875 196.605 143.141 197.262 142.617C197.918 142.086 198.727 141.82 199.688 141.82C200.805 141.82 201.68 142.184 202.312 142.91C202.945 143.637 203.262 144.754 203.262 146.262V153ZM217.055 149.52C216.93 150.668 216.477 151.582 215.695 152.262C214.922 152.934 213.953 153.27 212.789 153.27C212.148 153.27 211.562 153.164 211.031 152.953C210.5 152.742 210.047 152.449 209.672 152.074C209.297 151.699 209.004 151.25 208.793 150.727C208.59 150.195 208.488 149.617 208.488 148.992V144.27H206.016V142.078H208.488V137.707H210.914V142.078H215.496V144.27H210.914V148.992C210.914 149.695 211.086 150.219 211.43 150.562C211.773 150.906 212.227 151.078 212.789 151.078C213.477 151.078 213.988 150.879 214.324 150.48C214.66 150.082 214.859 149.602 214.922 149.039L217.055 149.52ZM243.352 153H240.281L236.32 146.812H235.219V153H232.793V137.707H237.832C239.512 137.707 240.816 138.094 241.746 138.867C242.676 139.633 243.141 140.77 243.141 142.277C243.141 142.949 243.035 143.543 242.824 144.059C242.621 144.566 242.328 145.004 241.945 145.371C241.57 145.738 241.129 146.031 240.621 146.25C240.121 146.461 239.578 146.605 238.992 146.684L243.352 153ZM240.715 142.242C240.715 141.461 240.457 140.875 239.941 140.484C239.434 140.094 238.73 139.898 237.832 139.898H235.219V144.621H237.832C238.73 144.621 239.434 144.426 239.941 144.035C240.457 143.645 240.715 143.047 240.715 142.242ZM247.547 148.465C247.664 149.215 248.02 149.84 248.613 150.34C249.215 150.832 250.02 151.078 251.027 151.078C251.816 151.078 252.5 150.957 253.078 150.715C253.664 150.465 254.168 150.137 254.59 149.73L255.832 151.441C255.129 152.145 254.383 152.625 253.594 152.883C252.812 153.141 251.957 153.27 251.027 153.27C250.184 153.27 249.398 153.129 248.672 152.848C247.945 152.566 247.316 152.176 246.785 151.676C246.254 151.168 245.836 150.566 245.531 149.871C245.234 149.176 245.086 148.402 245.086 147.551C245.086 146.723 245.223 145.961 245.496 145.266C245.777 144.562 246.168 143.957 246.668 143.449C247.176 142.934 247.781 142.535 248.484 142.254C249.188 141.965 249.965 141.82 250.816 141.82C251.699 141.82 252.5 141.973 253.219 142.277C253.938 142.574 254.551 143.008 255.059 143.578C255.574 144.148 255.977 144.848 256.266 145.676C256.555 146.496 256.699 147.426 256.699 148.465H247.547ZM253.957 146.332C253.832 145.629 253.469 145.066 252.867 144.645C252.266 144.215 251.582 144 250.816 144C250.051 144 249.363 144.215 248.754 144.645C248.145 145.066 247.777 145.629 247.652 146.332H253.957ZM269.051 149.73C269.051 150.441 268.891 151.02 268.57 151.465C268.25 151.91 267.836 152.27 267.328 152.543C266.828 152.816 266.266 153.004 265.641 153.105C265.023 153.215 264.418 153.27 263.824 153.27C262.832 153.27 261.844 153.125 260.859 152.836C259.875 152.547 259.023 152.168 258.305 151.699L259.312 149.707C260.172 150.207 260.957 150.562 261.668 150.773C262.387 150.977 263.105 151.078 263.824 151.078C264.801 151.078 265.512 150.977 265.957 150.773C266.402 150.562 266.625 150.273 266.625 149.906C266.625 149.727 266.562 149.578 266.438 149.461C266.312 149.344 266.105 149.238 265.816 149.145C265.527 149.043 265.145 148.945 264.668 148.852C264.199 148.75 263.613 148.645 262.91 148.535C262.348 148.441 261.812 148.328 261.305 148.195C260.805 148.055 260.363 147.859 259.98 147.609C259.598 147.359 259.289 147.043 259.055 146.66C258.828 146.277 258.715 145.797 258.715 145.219C258.715 144.633 258.863 144.125 259.16 143.695C259.465 143.258 259.859 142.898 260.344 142.617C260.836 142.336 261.387 142.133 261.996 142.008C262.605 141.883 263.215 141.82 263.824 141.82C264.684 141.82 265.516 141.934 266.32 142.16C267.133 142.379 267.844 142.695 268.453 143.109L267.492 144.984C266.883 144.602 266.289 144.344 265.711 144.211C265.141 144.07 264.512 144 263.824 144C263.535 144 263.234 144.016 262.922 144.047C262.609 144.078 262.32 144.141 262.055 144.234C261.789 144.32 261.566 144.441 261.387 144.598C261.215 144.746 261.129 144.93 261.129 145.148C261.129 145.438 261.383 145.676 261.891 145.863C262.406 146.043 263.281 146.223 264.516 146.402C265.188 146.496 265.801 146.617 266.355 146.766C266.91 146.906 267.387 147.102 267.785 147.352C268.184 147.594 268.492 147.91 268.711 148.301C268.938 148.684 269.051 149.16 269.051 149.73ZM273.75 148.465C273.867 149.215 274.223 149.84 274.816 150.34C275.418 150.832 276.223 151.078 277.23 151.078C278.02 151.078 278.703 150.957 279.281 150.715C279.867 150.465 280.371 150.137 280.793 149.73L282.035 151.441C281.332 152.145 280.586 152.625 279.797 152.883C279.016 153.141 278.16 153.27 277.23 153.27C276.387 153.27 275.602 153.129 274.875 152.848C274.148 152.566 273.52 152.176 272.988 151.676C272.457 151.168 272.039 150.566 271.734 149.871C271.438 149.176 271.289 148.402 271.289 147.551C271.289 146.723 271.426 145.961 271.699 145.266C271.98 144.562 272.371 143.957 272.871 143.449C273.379 142.934 273.984 142.535 274.688 142.254C275.391 141.965 276.168 141.82 277.02 141.82C277.902 141.82 278.703 141.973 279.422 142.277C280.141 142.574 280.754 143.008 281.262 143.578C281.777 144.148 282.18 144.848 282.469 145.676C282.758 146.496 282.902 147.426 282.902 148.465H273.75ZM280.16 146.332C280.035 145.629 279.672 145.066 279.07 144.645C278.469 144.215 277.785 144 277.02 144C276.254 144 275.566 144.215 274.957 144.645C274.348 145.066 273.98 145.629 273.855 146.332H280.16ZM284.578 149.859C284.578 149.219 284.75 148.66 285.094 148.184C285.438 147.699 285.887 147.297 286.441 146.977C287.004 146.656 287.645 146.418 288.363 146.262C289.09 146.098 289.828 146.016 290.578 146.016C290.992 146.016 291.348 146.023 291.645 146.039C291.941 146.055 292.242 146.078 292.547 146.109V145.676C292.547 145.105 292.324 144.68 291.879 144.398C291.441 144.117 290.863 143.977 290.145 143.977C289.488 143.977 288.82 144.07 288.141 144.258C287.461 144.438 286.816 144.703 286.207 145.055L285.223 143.156C285.941 142.742 286.711 142.418 287.531 142.184C288.359 141.941 289.23 141.82 290.145 141.82C290.738 141.82 291.32 141.887 291.891 142.02C292.469 142.152 292.984 142.371 293.438 142.676C293.898 142.98 294.266 143.379 294.539 143.871C294.812 144.355 294.949 144.957 294.949 145.676V153H292.547V151.395C292.164 151.988 291.598 152.449 290.848 152.777C290.105 153.105 289.305 153.27 288.445 153.27C287.914 153.27 287.41 153.195 286.934 153.047C286.465 152.906 286.059 152.691 285.715 152.402C285.371 152.113 285.094 151.758 284.883 151.336C284.68 150.906 284.578 150.414 284.578 149.859ZM289.066 151.102C289.543 151.102 289.988 151.043 290.402 150.926C290.824 150.801 291.195 150.633 291.516 150.422C291.836 150.203 292.086 149.941 292.266 149.637C292.453 149.332 292.547 148.996 292.547 148.629V148.219C292.164 148.156 291.805 148.121 291.469 148.113C291.133 148.105 290.836 148.102 290.578 148.102C289.391 148.102 288.492 148.258 287.883 148.57C287.281 148.883 286.98 149.27 286.98 149.73C286.98 150.645 287.676 151.102 289.066 151.102ZM308.379 144.668C308.09 144.527 307.793 144.422 307.488 144.352C307.191 144.273 306.848 144.234 306.457 144.234C305.918 144.234 305.41 144.316 304.934 144.48C304.465 144.637 304.059 144.875 303.715 145.195C303.371 145.516 303.102 145.918 302.906 146.402C302.719 146.879 302.625 147.445 302.625 148.102V150.82H305.074V153H297.727V150.82H300.199V144.27H297.727V142.078H302.625V144.82C303.023 143.727 303.609 142.953 304.383 142.5C305.164 142.047 306.09 141.82 307.16 141.82C307.496 141.82 307.848 141.855 308.215 141.926C308.582 141.996 308.941 142.121 309.293 142.301L308.379 144.668ZM321.34 151.441C320.637 152.145 319.895 152.625 319.113 152.883C318.34 153.141 317.5 153.27 316.594 153.27C315.68 153.27 314.848 153.133 314.098 152.859C313.355 152.586 312.723 152.203 312.199 151.711C311.684 151.211 311.285 150.609 311.004 149.906C310.73 149.203 310.594 148.418 310.594 147.551C310.594 146.723 310.73 145.957 311.004 145.254C311.285 144.543 311.66 143.938 312.129 143.438C312.605 142.93 313.164 142.535 313.805 142.254C314.445 141.965 315.125 141.82 315.844 141.82C316.594 141.82 317.246 141.977 317.801 142.289C318.355 142.602 318.758 143.059 319.008 143.66V142.078H321.176V147.164H319.008C319.008 146.203 318.742 145.438 318.211 144.867C317.688 144.289 317.004 144 316.16 144C315.824 144 315.469 144.07 315.094 144.211C314.727 144.344 314.387 144.555 314.074 144.844C313.77 145.133 313.516 145.5 313.312 145.945C313.109 146.391 313.008 146.926 313.008 147.551C313.008 148.16 313.105 148.688 313.301 149.133C313.496 149.57 313.75 149.934 314.062 150.223C314.383 150.504 314.758 150.719 315.188 150.867C315.625 151.008 316.074 151.078 316.535 151.078C317.324 151.078 318.008 150.957 318.586 150.715C319.172 150.465 319.676 150.137 320.098 149.73L321.34 151.441ZM334.277 153H331.852V146.262C331.852 145.41 331.691 144.82 331.371 144.492C331.051 144.164 330.586 144 329.977 144C329.078 144 328.344 144.363 327.773 145.09C327.211 145.816 326.93 146.82 326.93 148.102V153H324.504V137.707H326.93V144.82C327.172 143.875 327.621 143.141 328.277 142.617C328.934 142.086 329.742 141.82 330.703 141.82C331.82 141.82 332.695 142.184 333.328 142.91C333.961 143.637 334.277 144.754 334.277 146.262V153ZM339.258 148.465C339.375 149.215 339.73 149.84 340.324 150.34C340.926 150.832 341.73 151.078 342.738 151.078C343.527 151.078 344.211 150.957 344.789 150.715C345.375 150.465 345.879 150.137 346.301 149.73L347.543 151.441C346.84 152.145 346.094 152.625 345.305 152.883C344.523 153.141 343.668 153.27 342.738 153.27C341.895 153.27 341.109 153.129 340.383 152.848C339.656 152.566 339.027 152.176 338.496 151.676C337.965 151.168 337.547 150.566 337.242 149.871C336.945 149.176 336.797 148.402 336.797 147.551C336.797 146.723 336.934 145.961 337.207 145.266C337.488 144.562 337.879 143.957 338.379 143.449C338.887 142.934 339.492 142.535 340.195 142.254C340.898 141.965 341.676 141.82 342.527 141.82C343.41 141.82 344.211 141.973 344.93 142.277C345.648 142.574 346.262 143.008 346.77 143.578C347.285 144.148 347.688 144.848 347.977 145.676C348.266 146.496 348.41 147.426 348.41 148.465H339.258ZM345.668 146.332C345.543 145.629 345.18 145.066 344.578 144.645C343.977 144.215 343.293 144 342.527 144C341.762 144 341.074 144.215 340.465 144.645C339.855 145.066 339.488 145.629 339.363 146.332H345.668ZM360.785 144.668C360.496 144.527 360.199 144.422 359.895 144.352C359.598 144.273 359.254 144.234 358.863 144.234C358.324 144.234 357.816 144.316 357.34 144.48C356.871 144.637 356.465 144.875 356.121 145.195C355.777 145.516 355.508 145.918 355.312 146.402C355.125 146.879 355.031 147.445 355.031 148.102V150.82H357.48V153H350.133V150.82H352.605V144.27H350.133V142.078H355.031V144.82C355.43 143.727 356.016 142.953 356.789 142.5C357.57 142.047 358.496 141.82 359.566 141.82C359.902 141.82 360.254 141.855 360.621 141.926C360.988 141.996 361.348 142.121 361.699 142.301L360.785 144.668ZM387.598 142.078L385.957 153H382.957L381.809 146.426L380.637 153H377.637L375.996 142.078H378.375L379.336 149.379L380.508 142.078H383.074L384.258 149.379L385.219 142.078H387.598ZM396.375 140.66H393.422V137.707H396.375V140.66ZM398.602 153H391.266V150.82H393.68V144.27H391.266V142.078H396.105V150.82H398.602V153ZM413.578 149.52C413.453 150.668 413 151.582 412.219 152.262C411.445 152.934 410.477 153.27 409.312 153.27C408.672 153.27 408.086 153.164 407.555 152.953C407.023 152.742 406.57 152.449 406.195 152.074C405.82 151.699 405.527 151.25 405.316 150.727C405.113 150.195 405.012 149.617 405.012 148.992V144.27H402.539V142.078H405.012V137.707H407.438V142.078H412.02V144.27H407.438V148.992C407.438 149.695 407.609 150.219 407.953 150.562C408.297 150.906 408.75 151.078 409.312 151.078C410 151.078 410.512 150.879 410.848 150.48C411.184 150.082 411.383 149.602 411.445 149.039L413.578 149.52ZM425.988 153H423.562V146.262C423.562 145.41 423.402 144.82 423.082 144.492C422.762 144.164 422.297 144 421.688 144C420.789 144 420.055 144.363 419.484 145.09C418.922 145.816 418.641 146.82 418.641 148.102V153H416.215V137.707H418.641V144.82C418.883 143.875 419.332 143.141 419.988 142.617C420.645 142.086 421.453 141.82 422.414 141.82C423.531 141.82 424.406 142.184 425.039 142.91C425.672 143.637 425.988 144.754 425.988 146.262V153ZM452.473 149.73C452.473 150.441 452.312 151.02 451.992 151.465C451.672 151.91 451.258 152.27 450.75 152.543C450.25 152.816 449.688 153.004 449.062 153.105C448.445 153.215 447.84 153.27 447.246 153.27C446.254 153.27 445.266 153.125 444.281 152.836C443.297 152.547 442.445 152.168 441.727 151.699L442.734 149.707C443.594 150.207 444.379 150.562 445.09 150.773C445.809 150.977 446.527 151.078 447.246 151.078C448.223 151.078 448.934 150.977 449.379 150.773C449.824 150.562 450.047 150.273 450.047 149.906C450.047 149.727 449.984 149.578 449.859 149.461C449.734 149.344 449.527 149.238 449.238 149.145C448.949 149.043 448.566 148.945 448.09 148.852C447.621 148.75 447.035 148.645 446.332 148.535C445.77 148.441 445.234 148.328 444.727 148.195C444.227 148.055 443.785 147.859 443.402 147.609C443.02 147.359 442.711 147.043 442.477 146.66C442.25 146.277 442.137 145.797 442.137 145.219C442.137 144.633 442.285 144.125 442.582 143.695C442.887 143.258 443.281 142.898 443.766 142.617C444.258 142.336 444.809 142.133 445.418 142.008C446.027 141.883 446.637 141.82 447.246 141.82C448.105 141.82 448.938 141.934 449.742 142.16C450.555 142.379 451.266 142.695 451.875 143.109L450.914 144.984C450.305 144.602 449.711 144.344 449.133 144.211C448.562 144.07 447.934 144 447.246 144C446.957 144 446.656 144.016 446.344 144.047C446.031 144.078 445.742 144.141 445.477 144.234C445.211 144.32 444.988 144.441 444.809 144.598C444.637 144.746 444.551 144.93 444.551 145.148C444.551 145.438 444.805 145.676 445.312 145.863C445.828 146.043 446.703 146.223 447.938 146.402C448.609 146.496 449.223 146.617 449.777 146.766C450.332 146.906 450.809 147.102 451.207 147.352C451.605 147.594 451.914 147.91 452.133 148.301C452.359 148.684 452.473 149.16 452.473 149.73ZM461.883 140.66H458.93V137.707H461.883V140.66ZM464.109 153H456.773V150.82H459.188V144.27H456.773V142.078H461.613V150.82H464.109V153ZM478.969 153H476.543V145.512C476.543 144.996 476.488 144.617 476.379 144.375C476.277 144.125 476.094 144 475.828 144C475.344 144 475.035 144.273 474.902 144.82C474.777 145.359 474.715 146.148 474.715 147.188V153H472.289V145.512C472.289 144.996 472.234 144.617 472.125 144.375C472.016 144.125 471.824 144 471.551 144C471.074 144 470.773 144.273 470.648 144.82C470.531 145.359 470.473 146.148 470.473 147.188V153H468.047V142.078H470.496V143.66C470.668 143.059 470.922 142.602 471.258 142.289C471.594 141.977 472.043 141.82 472.605 141.82C473.074 141.82 473.465 141.965 473.777 142.254C474.098 142.535 474.316 142.926 474.434 143.426C474.707 142.879 474.988 142.477 475.277 142.219C475.574 141.953 476.027 141.82 476.637 141.82C477.387 141.82 477.961 142.098 478.359 142.652C478.766 143.199 478.969 144.031 478.969 145.148V153ZM481.723 142.078H484.148V143.062C484.609 142.648 485.074 142.34 485.543 142.137C486.02 141.926 486.562 141.82 487.172 141.82C487.875 141.82 488.527 141.965 489.129 142.254C489.73 142.535 490.246 142.93 490.676 143.438C491.105 143.938 491.445 144.543 491.695 145.254C491.945 145.957 492.07 146.723 492.07 147.551C492.07 148.387 491.945 149.156 491.695 149.859C491.445 150.562 491.105 151.168 490.676 151.676C490.246 152.176 489.73 152.566 489.129 152.848C488.527 153.129 487.875 153.27 487.172 153.27C486.562 153.27 486.02 153.16 485.543 152.941C485.074 152.723 484.609 152.406 484.148 151.992V157.371H481.723V142.078ZM484.148 150.07C484.438 150.391 484.805 150.641 485.25 150.82C485.703 150.992 486.137 151.078 486.551 151.078C487.465 151.078 488.207 150.754 488.777 150.105C489.355 149.457 489.645 148.605 489.645 147.551C489.645 146.496 489.355 145.641 488.777 144.984C488.207 144.328 487.465 144 486.551 144C486.137 144 485.703 144.086 485.25 144.258C484.805 144.422 484.438 144.664 484.148 144.984V150.07ZM503.438 153H496.102V150.82H498.492V139.898H496.102V137.707H500.918V150.82H503.438V153ZM514.289 140.66H511.336V137.707H514.289V140.66ZM516.516 153H509.18V150.82H511.594V144.27H509.18V142.078H514.02V150.82H516.516V153ZM531.082 149.73C531.082 150.441 530.922 151.02 530.602 151.465C530.281 151.91 529.867 152.27 529.359 152.543C528.859 152.816 528.297 153.004 527.672 153.105C527.055 153.215 526.449 153.27 525.855 153.27C524.863 153.27 523.875 153.125 522.891 152.836C521.906 152.547 521.055 152.168 520.336 151.699L521.344 149.707C522.203 150.207 522.988 150.562 523.699 150.773C524.418 150.977 525.137 151.078 525.855 151.078C526.832 151.078 527.543 150.977 527.988 150.773C528.434 150.562 528.656 150.273 528.656 149.906C528.656 149.727 528.594 149.578 528.469 149.461C528.344 149.344 528.137 149.238 527.848 149.145C527.559 149.043 527.176 148.945 526.699 148.852C526.23 148.75 525.645 148.645 524.941 148.535C524.379 148.441 523.844 148.328 523.336 148.195C522.836 148.055 522.395 147.859 522.012 147.609C521.629 147.359 521.32 147.043 521.086 146.66C520.859 146.277 520.746 145.797 520.746 145.219C520.746 144.633 520.895 144.125 521.191 143.695C521.496 143.258 521.891 142.898 522.375 142.617C522.867 142.336 523.418 142.133 524.027 142.008C524.637 141.883 525.246 141.82 525.855 141.82C526.715 141.82 527.547 141.934 528.352 142.16C529.164 142.379 529.875 142.695 530.484 143.109L529.523 144.984C528.914 144.602 528.32 144.344 527.742 144.211C527.172 144.07 526.543 144 525.855 144C525.566 144 525.266 144.016 524.953 144.047C524.641 144.078 524.352 144.141 524.086 144.234C523.82 144.32 523.598 144.441 523.418 144.598C523.246 144.746 523.16 144.93 523.16 145.148C523.16 145.438 523.414 145.676 523.922 145.863C524.438 146.043 525.312 146.223 526.547 146.402C527.219 146.496 527.832 146.617 528.387 146.766C528.941 146.906 529.418 147.102 529.816 147.352C530.215 147.594 530.523 147.91 530.742 148.301C530.969 148.684 531.082 149.16 531.082 149.73ZM544.594 149.52C544.469 150.668 544.016 151.582 543.234 152.262C542.461 152.934 541.492 153.27 540.328 153.27C539.688 153.27 539.102 153.164 538.57 152.953C538.039 152.742 537.586 152.449 537.211 152.074C536.836 151.699 536.543 151.25 536.332 150.727C536.129 150.195 536.027 149.617 536.027 148.992V144.27H533.555V142.078H536.027V137.707H538.453V142.078H543.035V144.27H538.453V148.992C538.453 149.695 538.625 150.219 538.969 150.562C539.312 150.906 539.766 151.078 540.328 151.078C541.016 151.078 541.527 150.879 541.863 150.48C542.199 150.082 542.398 149.602 542.461 149.039L544.594 149.52ZM553.594 140.66H550.641V137.707H553.594V140.66ZM555.82 153H548.484V150.82H550.898V144.27H548.484V142.078H553.324V150.82H555.82V153ZM570.27 151.441C569.566 152.145 568.824 152.625 568.043 152.883C567.27 153.141 566.43 153.27 565.523 153.27C564.609 153.27 563.777 153.133 563.027 152.859C562.285 152.586 561.652 152.203 561.129 151.711C560.613 151.211 560.215 150.609 559.934 149.906C559.66 149.203 559.523 148.418 559.523 147.551C559.523 146.723 559.66 145.957 559.934 145.254C560.215 144.543 560.59 143.938 561.059 143.438C561.535 142.93 562.094 142.535 562.734 142.254C563.375 141.965 564.055 141.82 564.773 141.82C565.523 141.82 566.176 141.977 566.73 142.289C567.285 142.602 567.688 143.059 567.938 143.66V142.078H570.105V147.164H567.938C567.938 146.203 567.672 145.438 567.141 144.867C566.617 144.289 565.934 144 565.09 144C564.754 144 564.398 144.07 564.023 144.211C563.656 144.344 563.316 144.555 563.004 144.844C562.699 145.133 562.445 145.5 562.242 145.945C562.039 146.391 561.938 146.926 561.938 147.551C561.938 148.16 562.035 148.688 562.23 149.133C562.426 149.57 562.68 149.934 562.992 150.223C563.312 150.504 563.688 150.719 564.117 150.867C564.555 151.008 565.004 151.078 565.465 151.078C566.254 151.078 566.938 150.957 567.516 150.715C568.102 150.465 568.605 150.137 569.027 149.73L570.27 151.441ZM84.1641 177H76.8281V174.82H79.2422V163.898H76.8281V161.707H84.1641V163.898H81.668V174.82H84.1641V177ZM98.4492 177H96.0234V170.262C96.0234 169.41 95.8633 168.82 95.543 168.492C95.2227 168.164 94.7578 168 94.1484 168C93.25 168 92.5156 168.363 91.9453 169.09C91.3828 169.816 91.1016 170.82 91.1016 172.102V177H88.6758V166.078H91.1016V168.82C91.3438 167.875 91.793 167.141 92.4492 166.617C93.1055 166.086 93.9141 165.82 94.875 165.82C95.9922 165.82 96.8672 166.184 97.5 166.91C98.1328 167.637 98.4492 168.754 98.4492 170.262V177ZM101.777 166.078H104.203V167.062C104.664 166.648 105.129 166.34 105.598 166.137C106.074 165.926 106.617 165.82 107.227 165.82C107.93 165.82 108.582 165.965 109.184 166.254C109.785 166.535 110.301 166.93 110.73 167.438C111.16 167.938 111.5 168.543 111.75 169.254C112 169.957 112.125 170.723 112.125 171.551C112.125 172.387 112 173.156 111.75 173.859C111.5 174.562 111.16 175.168 110.73 175.676C110.301 176.176 109.785 176.566 109.184 176.848C108.582 177.129 107.93 177.27 107.227 177.27C106.617 177.27 106.074 177.16 105.598 176.941C105.129 176.723 104.664 176.406 104.203 175.992V181.371H101.777V166.078ZM104.203 174.07C104.492 174.391 104.859 174.641 105.305 174.82C105.758 174.992 106.191 175.078 106.605 175.078C107.52 175.078 108.262 174.754 108.832 174.105C109.41 173.457 109.699 172.605 109.699 171.551C109.699 170.496 109.41 169.641 108.832 168.984C108.262 168.328 107.52 168 106.605 168C106.191 168 105.758 168.086 105.305 168.258C104.859 168.422 104.492 168.664 104.203 168.984V174.07ZM114.879 166.078H117.305V172.828C117.305 173.672 117.465 174.258 117.785 174.586C118.105 174.914 118.57 175.078 119.18 175.078C120.07 175.078 120.801 174.715 121.371 173.988C121.941 173.262 122.227 172.258 122.227 170.977V166.078H124.652V177H122.227V174.27C121.984 175.207 121.535 175.941 120.879 176.473C120.223 177.004 119.414 177.27 118.453 177.27C117.336 177.27 116.461 176.906 115.828 176.18C115.195 175.445 114.879 174.328 114.879 172.828V166.078ZM138.445 173.52C138.32 174.668 137.867 175.582 137.086 176.262C136.312 176.934 135.344 177.27 134.18 177.27C133.539 177.27 132.953 177.164 132.422 176.953C131.891 176.742 131.438 176.449 131.062 176.074C130.688 175.699 130.395 175.25 130.184 174.727C129.98 174.195 129.879 173.617 129.879 172.992V168.27H127.406V166.078H129.879V161.707H132.305V166.078H136.887V168.27H132.305V172.992C132.305 173.695 132.477 174.219 132.82 174.562C133.164 174.906 133.617 175.078 134.18 175.078C134.867 175.078 135.379 174.879 135.715 174.48C136.051 174.082 136.25 173.602 136.312 173.039L138.445 173.52ZM149.625 160.992L151.43 161.883L142.453 179.953L140.648 179.062L149.625 160.992ZM153.223 169.348C153.223 168.324 153.332 167.336 153.551 166.383C153.77 165.43 154.109 164.59 154.57 163.863C155.031 163.137 155.633 162.555 156.375 162.117C157.125 161.672 158.027 161.449 159.082 161.449C160.137 161.449 161.035 161.672 161.777 162.117C162.527 162.555 163.137 163.137 163.605 163.863C164.074 164.59 164.414 165.43 164.625 166.383C164.836 167.336 164.941 168.324 164.941 169.348C164.941 170.371 164.836 171.359 164.625 172.312C164.414 173.258 164.078 174.102 163.617 174.844C163.156 175.578 162.551 176.168 161.801 176.613C161.059 177.051 160.152 177.27 159.082 177.27C158.012 177.27 157.102 177.051 156.352 176.613C155.609 176.168 155.004 175.578 154.535 174.844C154.074 174.102 153.742 173.258 153.539 172.312C153.328 171.359 153.223 170.371 153.223 169.348ZM155.648 169.348C155.648 170.035 155.699 170.723 155.801 171.41C155.91 172.098 156.09 172.715 156.34 173.262C156.598 173.801 156.945 174.238 157.383 174.574C157.828 174.91 158.395 175.078 159.082 175.078C159.77 175.078 160.332 174.91 160.77 174.574C161.215 174.238 161.562 173.801 161.812 173.262C162.07 172.715 162.25 172.098 162.352 171.41C162.461 170.723 162.516 170.035 162.516 169.348C162.516 168.66 162.461 167.977 162.352 167.297C162.25 166.617 162.07 166.004 161.812 165.457C161.562 164.91 161.211 164.469 160.758 164.133C160.312 163.797 159.754 163.629 159.082 163.629C157.965 163.629 157.113 164.133 156.527 165.141C155.941 166.148 155.648 167.551 155.648 169.348ZM167.285 166.078H169.711V172.828C169.711 173.672 169.871 174.258 170.191 174.586C170.512 174.914 170.977 175.078 171.586 175.078C172.477 175.078 173.207 174.715 173.777 173.988C174.348 173.262 174.633 172.258 174.633 170.977V166.078H177.059V177H174.633V174.27C174.391 175.207 173.941 175.941 173.285 176.473C172.629 177.004 171.82 177.27 170.859 177.27C169.742 177.27 168.867 176.906 168.234 176.18C167.602 175.445 167.285 174.328 167.285 172.828V166.078ZM190.852 173.52C190.727 174.668 190.273 175.582 189.492 176.262C188.719 176.934 187.75 177.27 186.586 177.27C185.945 177.27 185.359 177.164 184.828 176.953C184.297 176.742 183.844 176.449 183.469 176.074C183.094 175.699 182.801 175.25 182.59 174.727C182.387 174.195 182.285 173.617 182.285 172.992V168.27H179.812V166.078H182.285V161.707H184.711V166.078H189.293V168.27H184.711V172.992C184.711 173.695 184.883 174.219 185.227 174.562C185.57 174.906 186.023 175.078 186.586 175.078C187.273 175.078 187.785 174.879 188.121 174.48C188.457 174.082 188.656 173.602 188.719 173.039L190.852 173.52ZM193.488 166.078H195.914V167.062C196.375 166.648 196.84 166.34 197.309 166.137C197.785 165.926 198.328 165.82 198.938 165.82C199.641 165.82 200.293 165.965 200.895 166.254C201.496 166.535 202.012 166.93 202.441 167.438C202.871 167.938 203.211 168.543 203.461 169.254C203.711 169.957 203.836 170.723 203.836 171.551C203.836 172.387 203.711 173.156 203.461 173.859C203.211 174.562 202.871 175.168 202.441 175.676C202.012 176.176 201.496 176.566 200.895 176.848C200.293 177.129 199.641 177.27 198.938 177.27C198.328 177.27 197.785 177.16 197.309 176.941C196.84 176.723 196.375 176.406 195.914 175.992V181.371H193.488V166.078ZM195.914 174.07C196.203 174.391 196.57 174.641 197.016 174.82C197.469 174.992 197.902 175.078 198.316 175.078C199.23 175.078 199.973 174.754 200.543 174.105C201.121 173.457 201.41 172.605 201.41 171.551C201.41 170.496 201.121 169.641 200.543 168.984C199.973 168.328 199.23 168 198.316 168C197.902 168 197.469 168.086 197.016 168.258C196.57 168.422 196.203 168.664 195.914 168.984V174.07ZM206.59 166.078H209.016V172.828C209.016 173.672 209.176 174.258 209.496 174.586C209.816 174.914 210.281 175.078 210.891 175.078C211.781 175.078 212.512 174.715 213.082 173.988C213.652 173.262 213.938 172.258 213.938 170.977V166.078H216.363V177H213.938V174.27C213.695 175.207 213.246 175.941 212.59 176.473C211.934 177.004 211.125 177.27 210.164 177.27C209.047 177.27 208.172 176.906 207.539 176.18C206.906 175.445 206.59 174.328 206.59 172.828V166.078ZM230.156 173.52C230.031 174.668 229.578 175.582 228.797 176.262C228.023 176.934 227.055 177.27 225.891 177.27C225.25 177.27 224.664 177.164 224.133 176.953C223.602 176.742 223.148 176.449 222.773 176.074C222.398 175.699 222.105 175.25 221.895 174.727C221.691 174.195 221.59 173.617 221.59 172.992V168.27H219.117V166.078H221.59V161.707H224.016V166.078H228.598V168.27H224.016V172.992C224.016 173.695 224.188 174.219 224.531 174.562C224.875 174.906 225.328 175.078 225.891 175.078C226.578 175.078 227.09 174.879 227.426 174.48C227.762 174.082 227.961 173.602 228.023 173.039L230.156 173.52ZM256.242 168.27H251.988V174.82H254.484V177H247.148V174.82H249.562V168.27H247.148V166.078H249.562C249.562 164.578 250.023 163.434 250.945 162.645C251.867 161.848 253.113 161.449 254.684 161.449C254.918 161.449 255.168 161.461 255.434 161.484C255.699 161.508 255.969 161.535 256.242 161.566V163.699C255.773 163.652 255.348 163.629 254.965 163.629C254.34 163.629 253.836 163.676 253.453 163.77C253.07 163.855 252.77 164 252.551 164.203C252.34 164.398 252.191 164.652 252.105 164.965C252.027 165.277 251.988 165.648 251.988 166.078H256.242V168.27ZM258.996 166.078H261.422V172.828C261.422 173.672 261.582 174.258 261.902 174.586C262.223 174.914 262.688 175.078 263.297 175.078C264.188 175.078 264.918 174.715 265.488 173.988C266.059 173.262 266.344 172.258 266.344 170.977V166.078H268.77V177H266.344V174.27C266.102 175.207 265.652 175.941 264.996 176.473C264.34 177.004 263.531 177.27 262.57 177.27C261.453 177.27 260.578 176.906 259.945 176.18C259.312 175.445 258.996 174.328 258.996 172.828V166.078ZM281.871 177H279.445V170.262C279.445 169.41 279.285 168.82 278.965 168.492C278.645 168.164 278.18 168 277.57 168C276.672 168 275.938 168.363 275.367 169.09C274.805 169.816 274.523 170.82 274.523 172.102V177H272.098V166.078H274.523V168.82C274.766 167.875 275.215 167.141 275.871 166.617C276.527 166.086 277.336 165.82 278.297 165.82C279.414 165.82 280.289 166.184 280.922 166.91C281.555 167.637 281.871 168.754 281.871 170.262V177ZM295.137 175.441C294.434 176.145 293.691 176.625 292.91 176.883C292.137 177.141 291.297 177.27 290.391 177.27C289.477 177.27 288.645 177.133 287.895 176.859C287.152 176.586 286.52 176.203 285.996 175.711C285.48 175.211 285.082 174.609 284.801 173.906C284.527 173.203 284.391 172.418 284.391 171.551C284.391 170.723 284.527 169.957 284.801 169.254C285.082 168.543 285.457 167.938 285.926 167.438C286.402 166.93 286.961 166.535 287.602 166.254C288.242 165.965 288.922 165.82 289.641 165.82C290.391 165.82 291.043 165.977 291.598 166.289C292.152 166.602 292.555 167.059 292.805 167.66V166.078H294.973V171.164H292.805C292.805 170.203 292.539 169.438 292.008 168.867C291.484 168.289 290.801 168 289.957 168C289.621 168 289.266 168.07 288.891 168.211C288.523 168.344 288.184 168.555 287.871 168.844C287.566 169.133 287.312 169.5 287.109 169.945C286.906 170.391 286.805 170.926 286.805 171.551C286.805 172.16 286.902 172.688 287.098 173.133C287.293 173.57 287.547 173.934 287.859 174.223C288.18 174.504 288.555 174.719 288.984 174.867C289.422 175.008 289.871 175.078 290.332 175.078C291.121 175.078 291.805 174.957 292.383 174.715C292.969 174.465 293.473 174.137 293.895 173.73L295.137 175.441ZM308.766 173.52C308.641 174.668 308.188 175.582 307.406 176.262C306.633 176.934 305.664 177.27 304.5 177.27C303.859 177.27 303.273 177.164 302.742 176.953C302.211 176.742 301.758 176.449 301.383 176.074C301.008 175.699 300.715 175.25 300.504 174.727C300.301 174.195 300.199 173.617 300.199 172.992V168.27H297.727V166.078H300.199V161.707H302.625V166.078H307.207V168.27H302.625V172.992C302.625 173.695 302.797 174.219 303.141 174.562C303.484 174.906 303.938 175.078 304.5 175.078C305.188 175.078 305.699 174.879 306.035 174.48C306.371 174.082 306.57 173.602 306.633 173.039L308.766 173.52ZM317.766 164.66H314.812V161.707H317.766V164.66ZM319.992 177H312.656V174.82H315.07V168.27H312.656V166.078H317.496V174.82H319.992V177ZM335.133 171.551C335.133 172.402 334.996 173.176 334.723 173.871C334.457 174.566 334.07 175.168 333.562 175.676C333.062 176.176 332.461 176.566 331.758 176.848C331.055 177.129 330.27 177.27 329.402 177.27C328.551 177.27 327.773 177.129 327.07 176.848C326.367 176.566 325.762 176.176 325.254 175.676C324.754 175.168 324.367 174.566 324.094 173.871C323.828 173.176 323.695 172.402 323.695 171.551C323.695 170.723 323.828 169.957 324.094 169.254C324.367 168.543 324.754 167.934 325.254 167.426C325.762 166.91 326.367 166.516 327.07 166.242C327.773 165.961 328.551 165.82 329.402 165.82C330.27 165.82 331.055 165.961 331.758 166.242C332.461 166.516 333.062 166.91 333.562 167.426C334.07 167.934 334.457 168.543 334.723 169.254C334.996 169.957 335.133 170.723 335.133 171.551ZM332.719 171.551C332.719 171.059 332.641 170.594 332.484 170.156C332.336 169.711 332.117 169.332 331.828 169.02C331.539 168.707 331.188 168.461 330.773 168.281C330.367 168.094 329.91 168 329.402 168C328.887 168 328.426 168.094 328.02 168.281C327.613 168.461 327.27 168.707 326.988 169.02C326.707 169.332 326.488 169.711 326.332 170.156C326.184 170.594 326.109 171.059 326.109 171.551C326.109 172.066 326.184 172.535 326.332 172.957C326.488 173.379 326.707 173.75 326.988 174.07C327.27 174.391 327.613 174.641 328.02 174.82C328.426 174.992 328.887 175.078 329.402 175.078C329.91 175.078 330.367 174.992 330.773 174.82C331.188 174.641 331.539 174.391 331.828 174.07C332.117 173.75 332.336 173.379 332.484 172.957C332.641 172.535 332.719 172.066 332.719 171.551ZM347.379 177H344.953V170.262C344.953 169.41 344.793 168.82 344.473 168.492C344.152 168.164 343.688 168 343.078 168C342.18 168 341.445 168.363 340.875 169.09C340.312 169.816 340.031 170.82 340.031 172.102V177H337.605V166.078H340.031V168.82C340.273 167.875 340.723 167.141 341.379 166.617C342.035 166.086 342.844 165.82 343.805 165.82C344.922 165.82 345.797 166.184 346.43 166.91C347.062 167.637 347.379 168.754 347.379 170.262V177ZM360.762 173.73C360.762 174.441 360.602 175.02 360.281 175.465C359.961 175.91 359.547 176.27 359.039 176.543C358.539 176.816 357.977 177.004 357.352 177.105C356.734 177.215 356.129 177.27 355.535 177.27C354.543 177.27 353.555 177.125 352.57 176.836C351.586 176.547 350.734 176.168 350.016 175.699L351.023 173.707C351.883 174.207 352.668 174.562 353.379 174.773C354.098 174.977 354.816 175.078 355.535 175.078C356.512 175.078 357.223 174.977 357.668 174.773C358.113 174.562 358.336 174.273 358.336 173.906C358.336 173.727 358.273 173.578 358.148 173.461C358.023 173.344 357.816 173.238 357.527 173.145C357.238 173.043 356.855 172.945 356.379 172.852C355.91 172.75 355.324 172.645 354.621 172.535C354.059 172.441 353.523 172.328 353.016 172.195C352.516 172.055 352.074 171.859 351.691 171.609C351.309 171.359 351 171.043 350.766 170.66C350.539 170.277 350.426 169.797 350.426 169.219C350.426 168.633 350.574 168.125 350.871 167.695C351.176 167.258 351.57 166.898 352.055 166.617C352.547 166.336 353.098 166.133 353.707 166.008C354.316 165.883 354.926 165.82 355.535 165.82C356.395 165.82 357.227 165.934 358.031 166.16C358.844 166.379 359.555 166.695 360.164 167.109L359.203 168.984C358.594 168.602 358 168.344 357.422 168.211C356.852 168.07 356.223 168 355.535 168C355.246 168 354.945 168.016 354.633 168.047C354.32 168.078 354.031 168.141 353.766 168.234C353.5 168.32 353.277 168.441 353.098 168.598C352.926 168.746 352.84 168.93 352.84 169.148C352.84 169.438 353.094 169.676 353.602 169.863C354.117 170.043 354.992 170.223 356.227 170.402C356.898 170.496 357.512 170.617 358.066 170.766C358.621 170.906 359.098 171.102 359.496 171.352C359.895 171.594 360.203 171.91 360.422 172.301C360.648 172.684 360.762 173.16 360.762 173.73Z" fill="black"/>
<defs>
<filter id="filter0_d_266_116" x="0" y="117" width="665" height="84" filterUnits="userSpaceOnUse" color-interpolation-filters="sRGB">
<feFlood flood-opacity="0" result="BackgroundImageFix"/>
<feColorMatrix in="SourceAlpha" type="matrix" values="0 0 0 0 0 0 0 0 0 0 0 0 0 0 0 0 0 0 127 0" result="hardAlpha"/>
<feOffset dx="4" dy="4"/>
<feComposite in2="hardAlpha" operator="out"/>
<feColorMatrix type="matrix" values="0 0 0 0 0 0 0 0 0 0 0 0 0 0 0 0 0 0 1 0"/>
<feBlend mode="normal" in2="BackgroundImageFix" result="effect1_dropShadow_266_116"/>
<feBlend mode="normal" in="SourceGraphic" in2="effect1_dropShadow_266_116" result="shape"/>
</filter>
</defs>
</svg>
