<svg width="135" height="123" viewBox="0 0 135 123" fill="none" xmlns="http://www.w3.org/2000/svg">
<g filter="url(#filter0_dd_293_19)">
<path d="M0 10C0 4.47715 4.47715 0 10 0H121C126.523 0 131 4.47715 131 10V109C131 114.523 126.523 119 121 119H10C4.47716 119 0 114.523 0 109V10Z" fill="black"/>
<path d="M10 0.5H121C126.247 0.5 130.5 4.7533 130.5 10V109C130.5 114.247 126.247 118.5 121 118.5H10C4.7533 118.5 0.5 114.247 0.5 109V10C0.5 4.7533 4.75329 0.5 10 0.5Z" stroke="#B6FFB6"/>
</g>
<path d="M58 85.6668V59.0002H74V85.6668M42 51.0002L66 32.3335L90 51.0002V80.3335C90 81.748 89.4381 83.1045 88.4379 84.1047C87.4377 85.1049 86.0812 85.6668 84.6667 85.6668H47.3333C45.9188 85.6668 44.5623 85.1049 43.5621 84.1047C42.5619 83.1045 42 81.748 42 80.3335V51.0002Z" stroke="#B6FFB6" stroke-width="3" stroke-linecap="round" stroke-linejoin="round"/>
<defs>
<filter id="filter0_dd_293_19" x="0" y="0" width="135" height="123" filterUnits="userSpaceOnUse" color-interpolation-filters="sRGB">
<feFlood flood-opacity="0" result="BackgroundImageFix"/>
<feColorMatrix in="SourceAlpha" type="matrix" values="0 0 0 0 0 0 0 0 0 0 0 0 0 0 0 0 0 0 127 0" result="hardAlpha"/>
<feOffset dx="4" dy="4"/>
<feComposite in2="hardAlpha" operator="out"/>
<feColorMatrix type="matrix" values="0 0 0 0 0 0 0 0 0 0 0 0 0 0 0 0 0 0 1 0"/>
<feBlend mode="normal" in2="BackgroundImageFix" result="effect1_dropShadow_293_19"/>
<feColorMatrix in="SourceAlpha" type="matrix" values="0 0 0 0 0 0 0 0 0 0 0 0 0 0 0 0 0 0 127 0" result="hardAlpha"/>
<feOffset dx="3" dy="3"/>
<feComposite in2="hardAlpha" operator="out"/>
<feColorMatrix type="matrix" values="0 0 0 0 0.713041 0 0 0 0 1 0 0 0 0 0.713041 0 0 0 1 0"/>
<feBlend mode="normal" in2="effect1_dropShadow_293_19" result="effect2_dropShadow_293_19"/>
<feBlend mode="normal" in="SourceGraphic" in2="effect2_dropShadow_293_19" result="shape"/>
</filter>
</defs>
</svg>
